<svg xmlns="http://www.w3.org/2000/svg" xmlns:xlink="http://www.w3.org/1999/xlink" contentStyleType="text/css" data-diagram-type="ACTIVITY" height="515px" preserveAspectRatio="none" style="width:388px;height:515px;background:#FFFFFF;" version="1.1" viewBox="0 0 388 515" width="388px" zoomAndPan="magnify"><defs/><g><ellipse cx="132.4082" cy="20" fill="#222222" rx="10" ry="10" style="stroke:#222222;stroke-width:1;"/><rect fill="none" height="88.4141" style="stroke:#000000;stroke-width:1.5;" width="327.8638" x="49.2441" y="40"/><path d="M139.5596,40 L139.5596,49.2969 L129.5596,59.2969 L49.2441,59.2969" fill="none" style="stroke:#000000;stroke-width:1.5;"/><text fill="#000000" font-family="sans-serif" font-size="14" lengthAdjust="spacing" textLength="80.3154" x="52.2441" y="53.9951">Home Page</text><path d="M225.5723,76.1484 L225.5723,92.2813 L205.5723,96.2813 L225.5723,100.2813 L225.5723,116.4141 A0,0 0 0 0 225.5723,116.4141 L367.1079,116.4141 A0,0 0 0 0 367.1079,116.4141 L367.1079,86.1484 L357.1079,76.1484 L225.5723,76.1484 A0,0 0 0 0 225.5723,76.1484" fill="#FEFFDD" style="stroke:#181818;stroke-width:0.5;"/><path d="M357.1079,76.1484 L357.1079,86.1484 L367.1079,86.1484 L357.1079,76.1484" fill="#FEFFDD" style="stroke:#181818;stroke-width:0.5;"/><text fill="#000000" font-family="sans-serif" font-size="13" lengthAdjust="spacing" textLength="102.667" x="231.5723" y="93.2153">device can be a</text><text fill="#000000" font-family="sans-serif" font-size="13" lengthAdjust="spacing" textLength="120.5356" x="231.5723" y="108.3481">camera or a drone</text><rect fill="#F1F1F1" height="33.9688" rx="12.5" ry="12.5" style="stroke:#181818;stroke-width:0.5;" width="146.3281" x="59.2441" y="79.2969"/><text fill="#000000" font-family="sans-serif" font-size="12" lengthAdjust="spacing" textLength="122.5137" x="73.0586" y="100.4355">Select device to add</text><rect fill="none" height="326.0781" style="stroke:#000000;stroke-width:1.5;" width="242.8164" x="11" y="138.4141"/><path d="M155.4902,138.4141 L155.4902,147.7109 L145.4902,157.7109 L11,157.7109" fill="none" style="stroke:#000000;stroke-width:1.5;"/><text fill="#000000" font-family="sans-serif" font-size="14" lengthAdjust="spacing" textLength="134.4902" x="14" y="152.4092">Select Device Page</text><rect fill="#F1F1F1" height="33.9688" rx="12.5" ry="12.5" style="stroke:#181818;stroke-width:0.5;" width="222.8164" x="21" y="174.7109"/><text fill="#000000" font-family="sans-serif" font-size="12" lengthAdjust="spacing" textLength="199.002" x="34.8145" y="195.8496">Show types of devices supported</text><rect fill="#F1F1F1" height="33.9688" rx="12.5" ry="12.5" style="stroke:#181818;stroke-width:0.5;" width="150.0664" x="57.375" y="228.6797"/><text fill="#000000" font-family="sans-serif" font-size="12" lengthAdjust="spacing" textLength="126.252" x="71.1895" y="249.8184">Select type of device</text><rect fill="#F1F1F1" height="47.9375" rx="12.5" ry="12.5" style="stroke:#181818;stroke-width:0.5;" width="140.9551" x="61.9307" y="282.6484"/><text fill="#000000" font-family="sans-serif" font-size="12" lengthAdjust="spacing" textLength="117.1406" x="75.7451" y="303.7871">Show needed fields</text><text fill="#000000" font-family="sans-serif" font-size="12" lengthAdjust="spacing" textLength="105.7324" x="71.9307" y="317.7559">for type of device</text><rect fill="#F1F1F1" height="47.9375" rx="12.5" ry="12.5" style="stroke:#181818;stroke-width:0.5;" width="125.7324" x="69.542" y="350.5859"/><text fill="#000000" font-family="sans-serif" font-size="12" lengthAdjust="spacing" textLength="101.666" x="83.3564" y="371.7246">Fill needed fields</text><text fill="#000000" font-family="sans-serif" font-size="12" lengthAdjust="spacing" textLength="105.7324" x="79.542" y="385.6934">for type of device</text><rect fill="#F1F1F1" height="33.9688" rx="12.5" ry="12.5" style="stroke:#181818;stroke-width:0.5;" width="66.3828" x="99.2168" y="418.5234"/><text fill="#000000" font-family="sans-serif" font-size="12" lengthAdjust="spacing" textLength="42.5684" x="113.0313" y="439.6621">Submit</text><ellipse cx="132.4082" cy="494.4922" fill="none" rx="10" ry="10" style="stroke:#222222;stroke-width:1.5;"/><line style="stroke:#222222;stroke-width:2.5;" x1="126.221" x2="138.5954" y1="488.305" y2="500.6794"/><line style="stroke:#222222;stroke-width:2.5;" x1="138.5954" x2="126.221" y1="488.305" y2="500.6794"/><line style="stroke:#181818;stroke-width:1;" x1="132.4082" x2="132.4082" y1="30" y2="79.2969"/><polygon fill="#181818" points="128.4082,69.2969,132.4082,79.2969,136.4082,69.2969,132.4082,73.2969" style="stroke:#181818;stroke-width:1;"/><line style="stroke:#181818;stroke-width:1;" x1="132.4082" x2="132.4082" y1="208.6797" y2="228.6797"/><polygon fill="#181818" points="128.4082,218.6797,132.4082,228.6797,136.4082,218.6797,132.4082,222.6797" style="stroke:#181818;stroke-width:1;"/><line style="stroke:#181818;stroke-width:1;" x1="132.4082" x2="132.4082" y1="262.6484" y2="282.6484"/><polygon fill="#181818" points="128.4082,272.6484,132.4082,282.6484,136.4082,272.6484,132.4082,276.6484" style="stroke:#181818;stroke-width:1;"/><line style="stroke:#181818;stroke-width:1;" x1="132.4082" x2="132.4082" y1="330.5859" y2="350.5859"/><polygon fill="#181818" points="128.4082,340.5859,132.4082,350.5859,136.4082,340.5859,132.4082,344.5859" style="stroke:#181818;stroke-width:1;"/><line style="stroke:#181818;stroke-width:1;" x1="132.4082" x2="132.4082" y1="398.5234" y2="418.5234"/><polygon fill="#181818" points="128.4082,408.5234,132.4082,418.5234,136.4082,408.5234,132.4082,412.5234" style="stroke:#181818;stroke-width:1;"/><line style="stroke:#181818;stroke-width:1;" x1="132.4082" x2="132.4082" y1="113.2656" y2="174.7109"/><polygon fill="#181818" points="128.4082,164.7109,132.4082,174.7109,136.4082,164.7109,132.4082,168.7109" style="stroke:#181818;stroke-width:1;"/><line style="stroke:#181818;stroke-width:1;" x1="132.4082" x2="132.4082" y1="452.4922" y2="484.4922"/><polygon fill="#181818" points="128.4082,474.4922,132.4082,484.4922,136.4082,474.4922,132.4082,478.4922" style="stroke:#181818;stroke-width:1;"/><!--SRC=[ZOwn3e9044Jx-uhv3cYDiJIXfJcu0IuvRidTeZ76VnSZY8cDpJRxPjvajKdDj1olNY9ECX9dsnDtKw1YOAjmlFYMK85rhZHHb4Y-7xJONgsDQ0XRnzQEJ1QIOE6IH9h7L_rQU7YdTiyWL-XjOePqQsT6dgT9ad9HVgQye9qfjsma7Hqwp-1o7Rj5_qiUVGZ_aTNSZ5xBPJgZCqy0]--></g></svg>