<svg xmlns="http://www.w3.org/2000/svg" xmlns:xlink="http://www.w3.org/1999/xlink" contentStyleType="text/css" data-diagram-type="CLASS" height="551px" preserveAspectRatio="none" style="width:919px;height:551px;background:#FFFFFF;" version="1.1" viewBox="0 0 919 551" width="919px" zoomAndPan="magnify"><defs/><g><!--class VideoStreamTrack--><g class="entity" data-entity="VideoStreamTrack" data-source-line="2" data-uid="ent0002" id="entity_VideoStreamTrack"><rect fill="#F1F1F1" height="67.0679" rx="2.5" ry="2.5" style="stroke:#181818;stroke-width:0.5;" width="144.6016" x="578.29" y="111.88"/><ellipse cx="593.29" cy="127.88" fill="#A9DCDF" rx="11" ry="11" style="stroke:#181818;stroke-width:1;"/><path d="M588.4619,133.63 L591.8056,121.4425 L594.9463,121.4425 L598.3213,133.63 L595.8525,133.63 L595.1181,130.6144 L591.6025,130.6144 L590.8525,133.63 L588.4619,133.63 Z M592.8681,125.5831 L592.1181,128.5831 L594.6338,128.5831 L593.915,125.5831 Q593.7744,125.005 593.6494,124.4581 Q593.5244,123.8956 593.3838,123.3175 Q593.2744,123.8956 593.1338,124.4581 Q592.9931,125.005 592.8681,125.5831 Z " fill="#000000"/><text fill="#000000" font-family="sans-serif" font-size="14" font-style="italic" lengthAdjust="spacing" textLength="112.6016" x="607.29" y="133.312">VideoStreamTrack</text><line style="stroke:#181818;stroke-width:0.5;" x1="579.29" x2="721.8916" y1="143.88" y2="143.88"/><line style="stroke:#181818;stroke-width:0.5;" x1="579.29" x2="721.8916" y1="151.88" y2="151.88"/><ellipse cx="589.29" cy="166.914" fill="#84BE84" rx="3" ry="3" style="stroke:#038048;stroke-width:1;"/><text fill="#000000" font-family="sans-serif" font-size="14" font-style="italic" lengthAdjust="spacing" textLength="101.9616" x="598.29" y="170.8459">async void recv()</text></g><g class="entity" data-entity="GMN3" data-source-line="6" data-uid="ent0004" id="entity_GMN3"><path d="M758.2,122.7 L758.2,141.41 L723.19,145.41 L758.2,149.41 L758.2,168.112 A0,0 0 0 0 758.2,168.112 L910.9941,168.112 A0,0 0 0 0 910.9941,168.112 L910.9941,132.7 L900.9941,122.7 L758.2,122.7 A0,0 0 0 0 758.2,122.7" fill="#FEFFDD" style="stroke:#181818;stroke-width:0.5;"/><path d="M900.9941,122.7 L900.9941,132.7 L910.9941,132.7 L900.9941,122.7" fill="#FEFFDD" style="stroke:#181818;stroke-width:0.5;"/><text fill="#000000" font-family="sans-serif" font-size="13" lengthAdjust="spacing" textLength="128.4141" x="764.2" y="141.597">This class is provided</text><text fill="#000000" font-family="sans-serif" font-size="13" lengthAdjust="spacing" textLength="95.5631" x="764.2" y="159.303">by aiortc library</text></g><!--class IpCamera--><g class="entity" data-entity="IpCamera" data-source-line="8" data-uid="ent0006" id="entity_IpCamera"><rect fill="#F1F1F1" height="86.1358" rx="2.5" ry="2.5" style="stroke:#181818;stroke-width:0.5;" width="185.5854" x="557.8" y="401.02"/><ellipse cx="614.0028" cy="417.02" fill="#ADD1B2" rx="11" ry="11" style="stroke:#181818;stroke-width:1;"/><path d="M613.4716,423.9419 Q611.7216,423.9419 610.5809,423.2075 Q609.4559,422.4575 608.8934,421.1138 Q608.3466,419.7544 608.3466,417.9575 Q608.3466,415.9263 609.0028,414.4731 Q609.6591,413.02 610.9403,412.2388 Q612.2216,411.4575 614.0966,411.4575 Q614.9872,411.4575 615.6591,411.645 Q616.3309,411.8169 617.0184,412.1606 L616.2059,414.1763 Q615.5809,413.8638 615.0341,413.7388 Q614.5028,413.6138 614.0184,413.6138 Q612.8466,413.6138 612.1434,414.145 Q611.4403,414.6763 611.1434,415.6294 Q610.8466,416.5825 610.8466,417.8481 Q610.8466,419.8638 611.5653,420.8325 Q612.2841,421.7856 613.8778,421.7856 Q614.4716,421.7856 615.0966,421.6294 Q615.7216,421.4731 616.5497,421.0981 L616.5497,423.3169 Q615.8153,423.6294 615.0184,423.7856 Q614.2372,423.9419 613.4716,423.9419 Z " fill="#000000"/><text fill="#000000" font-family="sans-serif" font-size="14" lengthAdjust="spacing" textLength="64.6798" x="634.5028" y="422.452">IpCamera</text><line style="stroke:#181818;stroke-width:0.5;" x1="558.8" x2="742.3854" y1="433.02" y2="433.02"/><rect fill="none" height="6" style="stroke:#C82930;stroke-width:1;" width="6" x="565.8" y="445.054"/><text fill="#000000" font-family="sans-serif" font-size="14" lengthAdjust="spacing" textLength="159.5854" x="577.8" y="451.9859">string connection_string</text><line style="stroke:#181818;stroke-width:0.5;" x1="558.8" x2="742.3854" y1="460.0879" y2="460.0879"/><ellipse cx="568.8" cy="475.1219" fill="#84BE84" rx="3" ry="3" style="stroke:#038048;stroke-width:1;"/><text fill="#000000" font-family="sans-serif" font-size="14" lengthAdjust="spacing" textLength="108.0656" x="577.8" y="479.0539">async void recv()</text></g><!--class UsbCamera--><g class="entity" data-entity="UsbCamera" data-source-line="12" data-uid="ent0007" id="entity_UsbCamera"><rect fill="#F1F1F1" height="86.1358" rx="2.5" ry="2.5" style="stroke:#181818;stroke-width:0.5;" width="134.0656" x="778.56" y="401.02"/><ellipse cx="804.8963" cy="417.02" fill="#ADD1B2" rx="11" ry="11" style="stroke:#181818;stroke-width:1;"/><path d="M804.3651,423.9419 Q802.6151,423.9419 801.4745,423.2075 Q800.3495,422.4575 799.787,421.1138 Q799.2401,419.7544 799.2401,417.9575 Q799.2401,415.9263 799.8963,414.4731 Q800.5526,413.02 801.8338,412.2388 Q803.1151,411.4575 804.9901,411.4575 Q805.8807,411.4575 806.5526,411.645 Q807.2245,411.8169 807.912,412.1606 L807.0995,414.1763 Q806.4745,413.8638 805.9276,413.7388 Q805.3963,413.6138 804.912,413.6138 Q803.7401,413.6138 803.037,414.145 Q802.3338,414.6763 802.037,415.6294 Q801.7401,416.5825 801.7401,417.8481 Q801.7401,419.8638 802.4588,420.8325 Q803.1776,421.7856 804.7713,421.7856 Q805.3651,421.7856 805.9901,421.6294 Q806.6151,421.4731 807.4432,421.0981 L807.4432,423.3169 Q806.7088,423.6294 805.912,423.7856 Q805.1307,423.9419 804.3651,423.9419 Z " fill="#000000"/><text fill="#000000" font-family="sans-serif" font-size="14" lengthAdjust="spacing" textLength="76.8737" x="821.4155" y="422.452">UsbCamera</text><line style="stroke:#181818;stroke-width:0.5;" x1="779.56" x2="911.6256" y1="433.02" y2="433.02"/><rect fill="none" height="6" style="stroke:#C82930;stroke-width:1;" width="6" x="786.56" y="445.054"/><text fill="#000000" font-family="sans-serif" font-size="14" lengthAdjust="spacing" textLength="33.1799" x="798.56" y="451.9859">int id</text><line style="stroke:#181818;stroke-width:0.5;" x1="779.56" x2="911.6256" y1="460.0879" y2="460.0879"/><ellipse cx="789.56" cy="475.1219" fill="#84BE84" rx="3" ry="3" style="stroke:#038048;stroke-width:1;"/><text fill="#000000" font-family="sans-serif" font-size="14" lengthAdjust="spacing" textLength="108.0656" x="798.56" y="479.0539">async void recv()</text></g><!--class IDrone--><g class="entity" data-entity="IDrone" data-source-line="17" data-uid="ent0008" id="entity_IDrone"><rect fill="#F1F1F1" height="276.815" rx="2.5" ry="2.5" style="stroke:#181818;stroke-width:0.5;" width="238.2252" x="153.48" y="7"/><ellipse cx="247.1327" cy="23" fill="#A9DCDF" rx="11" ry="11" style="stroke:#181818;stroke-width:1;"/><path d="M242.3046,28.75 L245.6483,16.5625 L248.7889,16.5625 L252.1639,28.75 L249.6952,28.75 L248.9608,25.7344 L245.4452,25.7344 L244.6952,28.75 L242.3046,28.75 Z M246.7108,20.7031 L245.9608,23.7031 L248.4764,23.7031 L247.7577,20.7031 Q247.6171,20.125 247.4921,19.5781 Q247.3671,19.0156 247.2264,18.4375 Q247.1171,19.0156 246.9764,19.5781 Q246.8358,20.125 246.7108,20.7031 Z " fill="#000000"/><text fill="#000000" font-family="sans-serif" font-size="14" font-style="italic" lengthAdjust="spacing" textLength="42.4198" x="267.6327" y="28.432">IDrone</text><line style="stroke:#181818;stroke-width:0.5;" x1="154.48" x2="390.7052" y1="39" y2="39"/><line style="stroke:#181818;stroke-width:0.5;" x1="154.48" x2="390.7052" y1="47" y2="47"/><ellipse cx="164.48" cy="62.034" fill="#84BE84" rx="3" ry="3" style="stroke:#038048;stroke-width:1;"/><text fill="#000000" font-family="sans-serif" font-size="14" lengthAdjust="spacing" textLength="126.4615" x="173.48" y="65.9659">void decode(string)</text><ellipse cx="164.48" cy="81.1019" fill="#84BE84" rx="3" ry="3" style="stroke:#038048;stroke-width:1;"/><text fill="#000000" font-family="sans-serif" font-size="14" font-style="italic" lengthAdjust="spacing" textLength="86.3097" x="173.48" y="85.0339">void connect()</text><ellipse cx="164.48" cy="100.1698" fill="#84BE84" rx="3" ry="3" style="stroke:#038048;stroke-width:1;"/><text fill="#000000" font-family="sans-serif" font-size="14" font-style="italic" lengthAdjust="spacing" textLength="104.0756" x="173.48" y="104.1018">void disconnect()</text><ellipse cx="164.48" cy="119.2377" fill="#84BE84" rx="3" ry="3" style="stroke:#038048;stroke-width:1;"/><text fill="#000000" font-family="sans-serif" font-size="14" font-style="italic" lengthAdjust="spacing" textLength="104.4396" x="173.48" y="123.1697">void moveFront()</text><ellipse cx="164.48" cy="138.3056" fill="#84BE84" rx="3" ry="3" style="stroke:#038048;stroke-width:1;"/><text fill="#000000" font-family="sans-serif" font-size="14" font-style="italic" lengthAdjust="spacing" textLength="101.1776" x="173.48" y="142.2376">void moveBack()</text><ellipse cx="164.48" cy="157.3735" fill="#84BE84" rx="3" ry="3" style="stroke:#038048;stroke-width:1;"/><text fill="#000000" font-family="sans-serif" font-size="14" font-style="italic" lengthAdjust="spacing" textLength="94.3316" x="173.48" y="161.3055">void moveLeft()</text><ellipse cx="164.48" cy="176.4415" fill="#84BE84" rx="3" ry="3" style="stroke:#038048;stroke-width:1;"/><text fill="#000000" font-family="sans-serif" font-size="14" font-style="italic" lengthAdjust="spacing" textLength="104.0476" x="173.48" y="180.3734">void moveRight()</text><ellipse cx="164.48" cy="195.5094" fill="#84BE84" rx="3" ry="3" style="stroke:#038048;stroke-width:1;"/><text fill="#000000" font-family="sans-serif" font-size="14" font-style="italic" lengthAdjust="spacing" textLength="98.3636" x="173.48" y="199.4414">void rotateLeft()</text><ellipse cx="164.48" cy="214.5773" fill="#84BE84" rx="3" ry="3" style="stroke:#038048;stroke-width:1;"/><text fill="#000000" font-family="sans-serif" font-size="14" font-style="italic" lengthAdjust="spacing" textLength="108.0796" x="173.48" y="218.5093">void rotateRight()</text><ellipse cx="164.48" cy="233.6452" fill="#84BE84" rx="3" ry="3" style="stroke:#038048;stroke-width:1;"/><text fill="#000000" font-family="sans-serif" font-size="14" font-style="italic" lengthAdjust="spacing" textLength="131.9075" x="173.48" y="237.5772">void sendCommand()</text><ellipse cx="164.48" cy="252.7131" fill="#84BE84" rx="3" ry="3" style="stroke:#038048;stroke-width:1;"/><text fill="#000000" font-family="sans-serif" font-size="14" font-style="italic" lengthAdjust="spacing" textLength="212.2252" x="173.48" y="256.6451">VideoStreamTrack getVideoTrack()</text><ellipse cx="164.48" cy="271.781" fill="#84BE84" rx="3" ry="3" style="stroke:#038048;stroke-width:1;"/><text fill="#000000" font-family="sans-serif" font-size="14" font-style="italic" lengthAdjust="spacing" textLength="85.5537" x="173.48" y="275.713">bool isFlying()</text></g><!--class Movement--><g class="entity" data-entity="Movement" data-source-line="32" data-uid="ent0009" id="entity_Movement"><rect fill="#F1F1F1" height="200.5433" rx="2.5" ry="2.5" style="stroke:#181818;stroke-width:0.5;" width="169.1915" x="7" y="343.82"/><ellipse cx="51.9119" cy="359.82" fill="#ADD1B2" rx="11" ry="11" style="stroke:#181818;stroke-width:1;"/><path d="M51.3806,366.7419 Q49.6306,366.7419 48.49,366.0075 Q47.365,365.2575 46.8025,363.9138 Q46.2556,362.5544 46.2556,360.7575 Q46.2556,358.7263 46.9119,357.2731 Q47.5681,355.82 48.8494,355.0388 Q50.1306,354.2575 52.0056,354.2575 Q52.8962,354.2575 53.5681,354.445 Q54.24,354.6169 54.9275,354.9606 L54.115,356.9763 Q53.49,356.6638 52.9431,356.5388 Q52.4119,356.4138 51.9275,356.4138 Q50.7556,356.4138 50.0525,356.945 Q49.3494,357.4763 49.0525,358.4294 Q48.7556,359.3825 48.7556,360.6481 Q48.7556,362.6638 49.4744,363.6325 Q50.1931,364.5856 51.7869,364.5856 Q52.3806,364.5856 53.0056,364.4294 Q53.6306,364.2731 54.4587,363.8981 L54.4587,366.1169 Q53.7244,366.4294 52.9275,366.5856 Q52.1462,366.7419 51.3806,366.7419 Z " fill="#000000"/><text fill="#000000" font-family="sans-serif" font-size="14" lengthAdjust="spacing" textLength="70.8677" x="72.4119" y="365.252">Movement</text><line style="stroke:#181818;stroke-width:0.5;" x1="8" x2="175.1915" y1="375.82" y2="375.82"/><rect fill="none" height="6" style="stroke:#C82930;stroke-width:1;" width="6" x="15" y="387.854"/><text fill="#000000" font-family="sans-serif" font-size="14" lengthAdjust="spacing" textLength="90.6077" x="27" y="394.7859">int back_front</text><rect fill="none" height="6" style="stroke:#C82930;stroke-width:1;" width="6" x="15" y="406.9219"/><text fill="#000000" font-family="sans-serif" font-size="14" lengthAdjust="spacing" textLength="80.2617" x="27" y="413.8539">int left_right</text><rect fill="none" height="6" style="stroke:#C82930;stroke-width:1;" width="6" x="15" y="425.9898"/><text fill="#000000" font-family="sans-serif" font-size="14" lengthAdjust="spacing" textLength="81.1717" x="27" y="432.9218">int down_up</text><rect fill="none" height="6" style="stroke:#C82930;stroke-width:1;" width="6" x="15" y="445.0577"/><text fill="#000000" font-family="sans-serif" font-size="14" lengthAdjust="spacing" textLength="46.9558" x="27" y="451.9897">int yaw</text><line style="stroke:#181818;stroke-width:0.5;" x1="8" x2="175.1915" y1="460.0917" y2="460.0917"/><ellipse cx="18" cy="475.1256" fill="#84BE84" rx="3" ry="3" style="stroke:#038048;stroke-width:1;"/><text fill="#000000" font-family="sans-serif" font-size="14" lengthAdjust="spacing" textLength="143.1915" x="27" y="479.0576">void setBackFront(int)</text><ellipse cx="18" cy="494.1935" fill="#84BE84" rx="3" ry="3" style="stroke:#038048;stroke-width:1;"/><text fill="#000000" font-family="sans-serif" font-size="14" lengthAdjust="spacing" textLength="136.5555" x="27" y="498.1255">void setLeftRight(int)</text><ellipse cx="18" cy="513.2615" fill="#84BE84" rx="3" ry="3" style="stroke:#038048;stroke-width:1;"/><text fill="#000000" font-family="sans-serif" font-size="14" lengthAdjust="spacing" textLength="134.0075" x="27" y="517.1934">void setDownUp(int)</text><ellipse cx="18" cy="532.3294" fill="#84BE84" rx="3" ry="3" style="stroke:#038048;stroke-width:1;"/><text fill="#000000" font-family="sans-serif" font-size="14" lengthAdjust="spacing" textLength="103.5996" x="27" y="536.2614">void setYaw(int)</text></g><!--class DjiTelloDrone--><g class="entity" data-entity="DjiTelloDrone" data-source-line="43" data-uid="ent0010" id="entity_DjiTelloDrone"><rect fill="#F1F1F1" height="67.0679" rx="2.5" ry="2.5" style="stroke:#181818;stroke-width:0.5;" width="121.8376" x="211.68" y="410.55"/><ellipse cx="226.68" cy="426.55" fill="#ADD1B2" rx="11" ry="11" style="stroke:#181818;stroke-width:1;"/><path d="M226.1488,433.4719 Q224.3988,433.4719 223.2581,432.7375 Q222.1331,431.9875 221.5706,430.6438 Q221.0238,429.2844 221.0238,427.4875 Q221.0238,425.4563 221.68,424.0031 Q222.3363,422.55 223.6175,421.7688 Q224.8988,420.9875 226.7738,420.9875 Q227.6644,420.9875 228.3363,421.175 Q229.0081,421.3469 229.6956,421.6906 L228.8831,423.7063 Q228.2581,423.3938 227.7113,423.2688 Q227.18,423.1438 226.6956,423.1438 Q225.5238,423.1438 224.8206,423.675 Q224.1175,424.2063 223.8206,425.1594 Q223.5238,426.1125 223.5238,427.3781 Q223.5238,429.3938 224.2425,430.3625 Q224.9613,431.3156 226.555,431.3156 Q227.1488,431.3156 227.7738,431.1594 Q228.3988,431.0031 229.2269,430.6281 L229.2269,432.8469 Q228.4925,433.1594 227.6956,433.3156 Q226.9144,433.4719 226.1488,433.4719 Z " fill="#000000"/><text fill="#000000" font-family="sans-serif" font-size="14" lengthAdjust="spacing" textLength="89.8376" x="240.68" y="431.982">DjiTelloDrone</text><line style="stroke:#181818;stroke-width:0.5;" x1="212.68" x2="332.5176" y1="442.55" y2="442.55"/><rect fill="none" height="6" style="stroke:#C82930;stroke-width:1;" width="6" x="219.68" y="454.584"/><text fill="#000000" font-family="sans-serif" font-size="14" lengthAdjust="spacing" textLength="69.2437" x="231.68" y="461.5159">bool flying</text><line style="stroke:#181818;stroke-width:0.5;" x1="212.68" x2="332.5176" y1="469.6179" y2="469.6179"/></g><!--class DjiTelloVideoTrack--><g class="entity" data-entity="DjiTelloVideoTrack" data-source-line="47" data-uid="ent0011" id="entity_DjiTelloVideoTrack"><rect fill="#F1F1F1" height="67.0679" rx="2.5" ry="2.5" style="stroke:#181818;stroke-width:0.5;" width="153.4215" x="368.88" y="410.55"/><ellipse cx="383.88" cy="426.55" fill="#ADD1B2" rx="11" ry="11" style="stroke:#181818;stroke-width:1;"/><path d="M383.3488,433.4719 Q381.5988,433.4719 380.4581,432.7375 Q379.3331,431.9875 378.7706,430.6438 Q378.2238,429.2844 378.2238,427.4875 Q378.2238,425.4563 378.88,424.0031 Q379.5363,422.55 380.8175,421.7688 Q382.0988,420.9875 383.9738,420.9875 Q384.8644,420.9875 385.5363,421.175 Q386.2081,421.3469 386.8956,421.6906 L386.0831,423.7063 Q385.4581,423.3938 384.9113,423.2688 Q384.38,423.1438 383.8956,423.1438 Q382.7238,423.1438 382.0206,423.675 Q381.3175,424.2063 381.0206,425.1594 Q380.7238,426.1125 380.7238,427.3781 Q380.7238,429.3938 381.4425,430.3625 Q382.1613,431.3156 383.755,431.3156 Q384.3488,431.3156 384.9738,431.1594 Q385.5988,431.0031 386.4269,430.6281 L386.4269,432.8469 Q385.6925,433.1594 384.8956,433.3156 Q384.1144,433.4719 383.3488,433.4719 Z " fill="#000000"/><text fill="#000000" font-family="sans-serif" font-size="14" lengthAdjust="spacing" textLength="121.4215" x="397.88" y="431.982">DjiTelloVideoTrack</text><line style="stroke:#181818;stroke-width:0.5;" x1="369.88" x2="521.3015" y1="442.55" y2="442.55"/><line style="stroke:#181818;stroke-width:0.5;" x1="369.88" x2="521.3015" y1="450.55" y2="450.55"/><ellipse cx="379.88" cy="465.584" fill="#84BE84" rx="3" ry="3" style="stroke:#038048;stroke-width:1;"/><text fill="#000000" font-family="sans-serif" font-size="14" lengthAdjust="spacing" textLength="108.0656" x="388.88" y="469.5159">async void recv()</text></g><!--reverse link VideoStreamTrack to IpCamera--><g class="link" data-entity-1="VideoStreamTrack" data-entity-2="IpCamera" data-source-line="51" data-uid="lnk12" id="link_VideoStreamTrack_IpCamera"><path codeLine="51" d="M650.6,197.29 C650.6,251.45 650.6,341.36 650.6,401.01" fill="none" id="VideoStreamTrack-backto-IpCamera" style="stroke:#181818;stroke-width:1;"/><polygon fill="none" points="650.6,179.29,644.6,197.29,656.6,197.29,650.6,179.29" style="stroke:#181818;stroke-width:1;"/></g><!--reverse link VideoStreamTrack to UsbCamera--><g class="link" data-entity-1="VideoStreamTrack" data-entity-2="UsbCamera" data-source-line="52" data-uid="lnk13" id="link_VideoStreamTrack_UsbCamera"><path codeLine="52" d="M681.8806,194.2554 C700.0906,222.1054 717.1,248.07 740.6,283.82 C766.6,323.4 796.32,368.46 817.48,400.52" fill="none" id="VideoStreamTrack-backto-UsbCamera" style="stroke:#181818;stroke-width:1;"/><polygon fill="none" points="672.03,179.19,676.8588,197.5389,686.9024,190.9718,672.03,179.19" style="stroke:#181818;stroke-width:1;"/></g><!--reverse link VideoStreamTrack to DjiTelloVideoTrack--><g class="link" data-entity-1="VideoStreamTrack" data-entity-2="DjiTelloVideoTrack" data-source-line="53" data-uid="lnk14" id="link_VideoStreamTrack_DjiTelloVideoTrack"><path codeLine="53" d="M617.6387,194.0995 C578.2387,251.1295 507.9,352.93 468.42,410.06" fill="none" id="VideoStreamTrack-backto-DjiTelloVideoTrack" style="stroke:#181818;stroke-width:1;"/><polygon fill="none" points="627.87,179.29,612.7022,190.689,622.5752,197.5099,627.87,179.29" style="stroke:#181818;stroke-width:1;"/></g><!--reverse link IDrone to DjiTelloDrone--><g class="link" data-entity-1="IDrone" data-entity-2="DjiTelloDrone" data-source-line="54" data-uid="lnk15" id="link_IDrone_DjiTelloDrone"><path codeLine="54" d="M272.6,301.89 C272.6,348.88 272.6,379.33 272.6,410.24" fill="none" id="IDrone-backto-DjiTelloDrone" style="stroke:#181818;stroke-width:1;"/><polygon fill="none" points="272.6,283.89,266.6,301.89,278.6,301.89,272.6,283.89" style="stroke:#181818;stroke-width:1;"/></g><!--reverse link DjiTelloDrone to DjiTelloVideoTrack--><g class="link" data-entity-1="DjiTelloDrone" data-entity-2="DjiTelloVideoTrack" data-source-line="55" data-uid="lnk16" id="link_DjiTelloDrone_DjiTelloVideoTrack"><path codeLine="55" d="M345.75,444.09 C357.4,444.09 357.05,444.09 368.7,444.09" fill="none" id="DjiTelloDrone-backto-DjiTelloVideoTrack" style="stroke:#181818;stroke-width:1;"/><polygon fill="none" points="333.75,444.09,339.75,448.09,345.75,444.09,339.75,440.09,333.75,444.09" style="stroke:#181818;stroke-width:1;"/><text fill="#000000" font-family="sans-serif" font-size="13" lengthAdjust="spacing" textLength="7.436" x="353.4322" y="440.1475">1</text></g><!--link Movement to DjiTelloDrone--><g class="link" data-entity-1="Movement" data-entity-2="DjiTelloDrone" data-source-line="56" data-uid="lnk17" id="link_Movement_DjiTelloDrone"><path codeLine="56" d="M176.44,444.09 C188.08,444.09 187.73,444.09 199.37,444.09" fill="none" id="Movement-to-DjiTelloDrone" style="stroke:#181818;stroke-width:1;"/><polygon fill="none" points="211.37,444.09,205.37,440.09,199.37,444.09,205.37,448.09,211.37,444.09" style="stroke:#181818;stroke-width:1;"/><text fill="#000000" font-family="sans-serif" font-size="13" lengthAdjust="spacing" textLength="7.436" x="184.3276" y="440.2613">1</text></g><!--SRC=[XLD1ReCm4Bpx5QkU4bKSUgrwQg98aTfBcrIgL0aPR1Atu4MsIuJI_BqBHfG4XtA2tM6yCxFcYNM6fmxId5iBRqf8V7L6yc93vIyuCg3d5ewy0vw0srgdKA4IO6HQpURin9X69y6etTu1PcEQUzZibUqEePVIO4KO0HywgO4hD2w5N2M6cven3rkN2rv8mxiP8g01bDv1YbhBr2dKiQzq8uRcyanRcrnGAUr0YOaV6JytPhqqg6LlHmiMCaKXPtw8-TYe5jHDExlM5yh-1ocmaYiwVXhnI3vF0fvaDitmqiHt5M7GSJTDuY7JD5PgiS2Yu5g4CAFDsKdNrjglq1y9OauhjSfhIi5dvoDx9ac5fA27eIV44cUDcODYJgBYTda7HO477N-NWqhD3yFuhNIDvpuPwiylcerLtej0SqdispBKUUS7N-w5B3_LHkOv3bSmyhgpLlKO-cTPlxB1BH_P_V0JDSAZ_lPDGFfh5SH4WM5OTurwYZDfx5meHcqaqStTJOYgZvVw7H8l-7u1]--></g></svg>