<svg xmlns="http://www.w3.org/2000/svg" xmlns:xlink="http://www.w3.org/1999/xlink" contentStyleType="text/css" data-diagram-type="DESCRIPTION" height="540px" preserveAspectRatio="none" style="width:556px;height:540px;background:#FFFFFF;" version="1.1" viewBox="0 0 556 540" width="556px" zoomAndPan="magnify"><defs/><g><!--cluster Remote--><g class="cluster" data-entity="Remote" data-source-line="6" data-uid="ent0003" id="cluster_Remote"><polygon fill="none" points="16,172.57,26,162.57,539,162.57,539,513.77,529,523.77,16,523.77,16,172.57" style="stroke:#181818;stroke-width:1;"/><line style="stroke:#181818;stroke-width:1;" x1="529" x2="539" y1="172.57" y2="162.57"/><line style="stroke:#181818;stroke-width:1;" x1="16" x2="529" y1="172.57" y2="172.57"/><line style="stroke:#181818;stroke-width:1;" x1="529" x2="529" y1="172.57" y2="523.77"/><text fill="#000000" font-family="sans-serif" font-size="14" font-weight="bold" lengthAdjust="spacing" textLength="148.6234" x="199.1883" y="190.5359">Remote Server/Cloud</text></g><g class="entity" data-entity="WebRtc" data-source-line="8" data-uid="ent0004" id="entity_WebRtc"><text fill="#000000" font-family="sans-serif" font-size="14" lengthAdjust="spacing" textLength="50.0078" x="45.9961" y="140.468">WebRtc</text><rect fill="#F1F1F1" height="12" style="stroke:#181818;stroke-width:1.5;" width="12" x="65" y="156.57"/></g><g class="entity" data-entity="Grpc" data-source-line="9" data-uid="ent0005" id="entity_Grpc"><text fill="#000000" font-family="sans-serif" font-size="14" lengthAdjust="spacing" textLength="31.3039" x="123.3481" y="140.468">Grpc</text><rect fill="#F1F1F1" height="12" style="stroke:#181818;stroke-width:1.5;" width="12" x="133" y="156.57"/></g><g class="entity" data-entity="Frontend" data-source-line="10" data-uid="ent0006" id="entity_Frontend"><text fill="#000000" font-family="sans-serif" font-size="14" lengthAdjust="spacing" textLength="60.3818" x="382.4791" y="140.468">Frontend</text><rect fill="#F1F1F1" height="12" style="stroke:#181818;stroke-width:1.5;" width="12" x="406.67" y="156.57"/></g><g class="entity" data-entity="Email" data-source-line="11" data-uid="ent0007" id="entity_Email"><text fill="#000000" font-family="sans-serif" font-size="14" lengthAdjust="spacing" textLength="35.9519" x="328.0241" y="140.468">Email</text><rect fill="#F1F1F1" height="12" style="stroke:#181818;stroke-width:1.5;" width="12" x="340" y="156.57"/></g><!--entity redis--><g class="entity" data-entity="redis" data-source-line="25" data-uid="ent0011" id="entity_redis"><rect fill="#F1F1F1" height="49.0679" rx="2.5" ry="2.5" style="stroke:#181818;stroke-width:0.5;" width="121.3257" x="71.34" y="349.63"/><rect fill="#F1F1F1" height="10" style="stroke:#181818;stroke-width:0.5;" width="15" x="172.6657" y="354.63"/><rect fill="#F1F1F1" height="2" style="stroke:#181818;stroke-width:0.5;" width="4" x="170.6657" y="356.63"/><rect fill="#F1F1F1" height="2" style="stroke:#181818;stroke-width:0.5;" width="4" x="170.6657" y="360.63"/><text fill="#000000" font-family="sans-serif" font-size="14" lengthAdjust="spacing" textLength="81.3257" x="86.34" y="384.5959">Redis Server</text></g><!--entity VideoStore--><g class="entity" data-entity="VideoStore" data-source-line="27" data-uid="ent0012" id="entity_VideoStore"><rect fill="#F1F1F1" height="49.0679" rx="2.5" ry="2.5" style="stroke:#181818;stroke-width:0.5;" width="131.9797" x="32.01" y="458.7"/><rect fill="#F1F1F1" height="10" style="stroke:#181818;stroke-width:0.5;" width="15" x="143.9897" y="463.7"/><rect fill="#F1F1F1" height="2" style="stroke:#181818;stroke-width:0.5;" width="4" x="141.9897" y="465.7"/><rect fill="#F1F1F1" height="2" style="stroke:#181818;stroke-width:0.5;" width="4" x="141.9897" y="469.7"/><text fill="#000000" font-family="sans-serif" font-size="14" lengthAdjust="spacing" textLength="91.9797" x="47.01" y="493.6659">Video Storage</text></g><!--entity VideoEvaluator--><g class="entity" data-entity="VideoEvaluator" data-source-line="29" data-uid="ent0013" id="entity_VideoEvaluator"><rect fill="#F1F1F1" height="49.0679" rx="2.5" ry="2.5" style="stroke:#181818;stroke-width:0.5;" width="147.8556" x="199.07" y="458.7"/><rect fill="#F1F1F1" height="10" style="stroke:#181818;stroke-width:0.5;" width="15" x="326.9256" y="463.7"/><rect fill="#F1F1F1" height="2" style="stroke:#181818;stroke-width:0.5;" width="4" x="324.9256" y="465.7"/><rect fill="#F1F1F1" height="2" style="stroke:#181818;stroke-width:0.5;" width="4" x="324.9256" y="469.7"/><text fill="#000000" font-family="sans-serif" font-size="14" lengthAdjust="spacing" textLength="107.8556" x="214.07" y="493.6659">Video Evalutator</text></g><!--entity Notifier--><g class="entity" data-entity="Notifier" data-source-line="31" data-uid="ent0014" id="entity_Notifier"><rect fill="#F1F1F1" height="49.0679" rx="2.5" ry="2.5" style="stroke:#181818;stroke-width:0.5;" width="89.8818" x="404.06" y="240.57"/><rect fill="#F1F1F1" height="10" style="stroke:#181818;stroke-width:0.5;" width="15" x="473.9418" y="245.57"/><rect fill="#F1F1F1" height="2" style="stroke:#181818;stroke-width:0.5;" width="4" x="471.9418" y="247.57"/><rect fill="#F1F1F1" height="2" style="stroke:#181818;stroke-width:0.5;" width="4" x="471.9418" y="251.57"/><text fill="#000000" font-family="sans-serif" font-size="14" lengthAdjust="spacing" textLength="49.8818" x="419.06" y="275.5359">Notifier</text></g><!--entity proxy--><g class="entity" data-entity="proxy" data-source-line="14" data-uid="ent0008" id="entity_proxy"><rect fill="#F1F1F1" height="49.0679" rx="2.5" ry="2.5" style="stroke:#181818;stroke-width:0.5;" width="77.4079" x="32.3" y="240.57"/><rect fill="#F1F1F1" height="10" style="stroke:#181818;stroke-width:0.5;" width="15" x="89.7079" y="245.57"/><rect fill="#F1F1F1" height="2" style="stroke:#181818;stroke-width:0.5;" width="4" x="87.7079" y="247.57"/><rect fill="#F1F1F1" height="2" style="stroke:#181818;stroke-width:0.5;" width="4" x="87.7079" y="251.57"/><text fill="#000000" font-family="sans-serif" font-size="14" lengthAdjust="spacing" textLength="37.4079" x="47.3" y="275.5359">proxy</text></g><!--entity Database--><g class="entity" data-entity="Database" data-source-line="18" data-uid="ent0009" id="entity_Database"><path d="M245.98,360.13 C245.98,350.13 287.0039,350.13 287.0039,350.13 C287.0039,350.13 328.0278,350.13 328.0278,360.13 L328.0278,388.1979 C328.0278,398.1979 287.0039,398.1979 287.0039,398.1979 C287.0039,398.1979 245.98,398.1979 245.98,388.1979 L245.98,360.13" fill="#F1F1F1" style="stroke:#181818;stroke-width:0.5;"/><path d="M245.98,360.13 C245.98,370.13 287.0039,370.13 287.0039,370.13 C287.0039,370.13 328.0278,370.13 328.0278,360.13" fill="none" style="stroke:#181818;stroke-width:0.5;"/><text fill="#000000" font-family="sans-serif" font-size="14" lengthAdjust="spacing" textLength="62.0478" x="255.98" y="389.0959">Database</text></g><!--entity WebServer--><g class="entity" data-entity="WebServer" data-source-line="21" data-uid="ent0010" id="entity_WebServer"><rect fill="#F1F1F1" height="49.0679" rx="2.5" ry="2.5" style="stroke:#181818;stroke-width:0.5;" width="111.6797" x="382.16" y="458.7"/><rect fill="#F1F1F1" height="10" style="stroke:#181818;stroke-width:0.5;" width="15" x="473.8397" y="463.7"/><rect fill="#F1F1F1" height="2" style="stroke:#181818;stroke-width:0.5;" width="4" x="471.8397" y="465.7"/><rect fill="#F1F1F1" height="2" style="stroke:#181818;stroke-width:0.5;" width="4" x="471.8397" y="469.7"/><text fill="#000000" font-family="sans-serif" font-size="14" lengthAdjust="spacing" textLength="71.6797" x="397.16" y="493.6659">WebServer</text></g><!--entity User--><g class="entity" data-entity="User" data-source-line="4" data-uid="ent0002" id="entity_User"><ellipse cx="413.9978" cy="14" fill="#F1F1F1" rx="8" ry="8" style="stroke:#181818;stroke-width:0.5;"/><path d="M413.9978,22 L413.9978,49 M400.9978,30 L426.9978,30 M413.9978,49 L400.9978,64 M413.9978,49 L426.9978,64" fill="none" style="stroke:#181818;stroke-width:0.5;"/><text fill="#000000" font-family="sans-serif" font-size="14" lengthAdjust="spacing" textLength="111.2156" x="358.39" y="80.4659">Basestation User</text></g><!--link proxy to redis--><g class="link" data-entity-1="proxy" data-entity-2="redis" data-source-line="35" data-uid="lnk15" id="link_proxy_redis"><path d="M90.52,290.12 C90.52,307.86 90.52,331.55 90.52,349.26" fill="none" id="proxy-redis" style="stroke:#181818;stroke-width:1;"/><path d="M97.5911,312.6302 A10,10 0 0 0 83.4489 312.6302" fill="none" style="stroke:#181818;stroke-width:1.5;"/><ellipse cx="90.52" cy="319.7012" fill="#FFFFFF" rx="6" ry="6" style="stroke:#181818;stroke-width:1.5;"/></g><!--link redis to VideoStore--><g class="link" data-entity-1="redis" data-entity-2="VideoStore" data-source-line="36" data-uid="lnk16" id="link_redis_VideoStore"><path d="M117.66,399.19 C117.66,416.93 117.66,440.62 117.66,458.33" fill="none" id="redis-VideoStore" style="stroke:#181818;stroke-width:1;"/><path d="M110.5889,435.8423 A10,10 0 0 0 124.7311 435.8423" fill="none" style="stroke:#181818;stroke-width:1.5;"/><ellipse cx="117.66" cy="428.7713" fill="#FFFFFF" rx="6" ry="6" style="stroke:#181818;stroke-width:1.5;"/></g><!--link redis to VideoEvaluator--><g class="link" data-entity-1="redis" data-entity-2="VideoEvaluator" data-source-line="37" data-uid="lnk17" id="link_redis_VideoEvaluator"><path d="M183.11,399.08 C183.11,431.15 183.11,482.77 183.11,482.77 C183.11,482.77 189.45,482.77 198.76,482.77" fill="none" id="redis-VideoEvaluator" style="stroke:#181818;stroke-width:1;"/><path d="M176.0389,460.0223 A10,10 0 0 0 190.1811 460.0223" fill="none" style="stroke:#181818;stroke-width:1.5;"/><ellipse cx="183.11" cy="452.9513" fill="#FFFFFF" rx="6" ry="6" style="stroke:#181818;stroke-width:1.5;"/></g><!--link redis to WebServer--><g class="link" data-entity-1="redis" data-entity-2="WebServer" data-source-line="38" data-uid="lnk18" id="link_redis_WebServer"><path d="M173.55,398.91 C173.55,413.36 173.55,428.77 173.55,428.77 C173.55,428.77 391.26,428.77 391.26,428.77 C391.26,428.77 391.26,443.92 391.26,458.23" fill="none" id="redis-WebServer" style="stroke:#181818;stroke-width:1;"/><path d="M289.4761,435.8411 A10,10 0 0 0 289.4761 421.6989" fill="none" style="stroke:#181818;stroke-width:1.5;"/><ellipse cx="282.405" cy="428.77" fill="#FFFFFF" rx="6" ry="6" style="stroke:#181818;stroke-width:1.5;"/></g><!--link Frontend to WebServer--><g class="link" data-entity-1="Frontend" data-entity-2="WebServer" data-source-line="40" data-uid="lnk20" id="link_Frontend_WebServer"><path d="M399.79,162.62 C399.79,166.71 399.79,383.9 399.79,458.44" fill="none" id="Frontend-WebServer" style="stroke:#181818;stroke-width:1;"/></g><!--link proxy to Database--><g class="link" data-entity-1="proxy" data-entity-2="Database" data-source-line="41" data-uid="lnk21" id="link_proxy_Database"><path d="M110.12,285.77 C172.36,285.77 287,285.77 287,285.77 C287,285.77 287,323.84 287,350.01" fill="none" id="proxy-Database" style="stroke:#181818;stroke-width:1;"/></g><!--link Database to WebServer--><g class="link" data-entity-1="Database" data-entity-2="WebServer" data-source-line="42" data-uid="lnk22" id="link_Database_WebServer"><path d="M328.34,373.77 C359.01,373.77 395.53,373.77 395.53,373.77 C395.53,373.77 395.53,426.1 395.53,458.4" fill="none" id="Database-WebServer" style="stroke:#181818;stroke-width:1;"/></g><!--link Notifier to VideoEvaluator--><g class="link" data-entity-1="Notifier" data-entity-2="VideoEvaluator" data-source-line="44" data-uid="lnk24" id="link_Notifier_VideoEvaluator"><path d="M403.64,282.77 C372.76,282.77 337.48,282.77 337.48,282.77 C337.48,282.77 337.48,404.51 337.48,458.25" fill="none" id="Notifier-VideoEvaluator" style="stroke:#181818;stroke-width:1;"/></g><!--link Notifier to Email--><g class="link" data-entity-1="Notifier" data-entity-2="Email" data-source-line="46" data-uid="lnk25" id="link_Notifier_Email"><path d="M403.82,245.77 C376.93,245.77 348,245.77 348,245.77 C348,245.77 348,188.17 348,168.82" fill="none" id="Notifier-Email" style="stroke:#181818;stroke-width:1;"/></g><!--link proxy to WebRtc--><g class="link" data-entity-1="proxy" data-entity-2="WebRtc" data-source-line="49" data-uid="lnk26" id="link_proxy_WebRtc"><path d="M71,240.28 C71,216.34 71,181.79 71,168.28" fill="none" id="proxy-WebRtc" style="stroke:#181818;stroke-width:1;"/></g><!--link proxy to Grpc--><g class="link" data-entity-1="proxy" data-entity-2="Grpc" data-source-line="50" data-uid="lnk27" id="link_proxy_Grpc"><path d="M103.85,240.3 C103.85,210.59 103.85,164.77 103.85,164.77 C103.85,164.77 122.41,164.77 132.55,164.77" fill="none" id="proxy-Grpc" style="stroke:#181818;stroke-width:1;"/></g><!--link User to Frontend--><g class="link" data-entity-1="User" data-entity-2="Frontend" data-source-line="54" data-uid="lnk28" id="link_User_Frontend"><path d="M414,84.82 C414,111.46 414,143.93 414,156.86" fill="none" id="User-Frontend" style="stroke:#181818;stroke-width:1;"/></g><!--SRC=[PLBBJWCn3BpxAw8zmI6Ytm0KRXnQ5SxfnhGHkt6KU2kgYdzdysWsqDlOdjWpTiANiKvvDOh1MEIpGq6UZmIWUYOlTW6zK45qZofWOCM6R4fs09OqYWsEn9We1MxHdz0_F0qqwKvS0DpSKNpWViDzng_U5VJYoJ9QdQFrgCm003sDZYnQ5ixJzpds-07GYjL-LY6Uh-0Iqmjv7f5dbmTBnQCseMYCADEwbl9kDD9sjfozf534M1tmbhW-gM5ISK4BEUKu9l_mtuZDfq4_-u9iHzwjP9O4MPXStSj6m4ssJcihrIt0ObnEJZPBpUEyEHnPrhL1tT-rqhJwvqwcXek5AnAo7giCgGSkORfnF4FwGR9H1Ry0]--></g></svg>