<svg xmlns="http://www.w3.org/2000/svg" xmlns:xlink="http://www.w3.org/1999/xlink" contentStyleType="text/css" data-diagram-type="CLASS" height="322px" preserveAspectRatio="none" style="width:394px;height:322px;background:#FFFFFF;" version="1.1" viewBox="0 0 394 322" width="394px" zoomAndPan="magnify"><defs/><g><!--class users--><g class="entity" data-entity="users" data-source-line="6" data-uid="ent0002" id="entity_users"><rect fill="#F1F1F1" height="124.2717" rx="2.5" ry="2.5" style="stroke:#181818;stroke-width:0.5;" width="187.4333" x="7" y="16.53"/><ellipse cx="78.5957" cy="32.53" fill="#ADD1B2" rx="11" ry="11" style="stroke:#181818;stroke-width:1;"/><path d="M74.9551,39.03 L74.9551,26.8894 L82.6114,26.8894 L82.6114,29.0144 L77.3301,29.0144 L77.3301,31.6706 L82.3457,31.6706 L82.3457,33.7956 L77.3301,33.7956 L77.3301,36.905 L82.6114,36.905 L82.6114,39.03 L74.9551,39.03 Z " fill="#000000"/><text fill="#000000" font-family="sans-serif" font-size="14" lengthAdjust="spacing" textLength="35.7419" x="99.0957" y="37.962">users</text><line style="stroke:#181818;stroke-width:0.5;" x1="8" x2="193.4333" y1="48.53" y2="48.53"/><ellipse cx="18" cy="63.564" fill="none" rx="3" ry="3" style="stroke:#038048;stroke-width:1;"/><text fill="#000000" font-family="sans-serif" font-size="14" lengthAdjust="spacing" textLength="93.7437" x="27" y="67.4959">id : serial &#171;PK&#187;</text><line style="stroke:#181818;stroke-width:1;" x1="8" x2="193.4333" y1="75.5979" y2="75.5979"/><text fill="#000000" font-family="sans-serif" font-size="14" lengthAdjust="spacing" textLength="175.4333" x="13" y="94.5639">username : text &#171;UNIQUE&#187;</text><text fill="#000000" font-family="sans-serif" font-size="14" lengthAdjust="spacing" textLength="133.7415" x="13" y="113.6318">password_salt : uuid</text><text fill="#000000" font-family="sans-serif" font-size="14" lengthAdjust="spacing" textLength="100.1836" x="13" y="132.6997">password : text</text></g><!--class basestations--><g class="entity" data-entity="basestations" data-source-line="14" data-uid="ent0003" id="entity_basestations"><rect fill="#F1F1F1" height="143.3396" rx="2.5" ry="2.5" style="stroke:#181818;stroke-width:0.5;" width="158.3974" x="229.52" y="7"/><ellipse cx="263.9707" cy="23" fill="#ADD1B2" rx="11" ry="11" style="stroke:#181818;stroke-width:1;"/><path d="M260.3301,29.5 L260.3301,17.3594 L267.9863,17.3594 L267.9863,19.4844 L262.7051,19.4844 L262.7051,22.1406 L267.7207,22.1406 L267.7207,24.2656 L262.7051,24.2656 L262.7051,27.375 L267.9863,27.375 L267.9863,29.5 L260.3301,29.5 Z " fill="#000000"/><text fill="#000000" font-family="sans-serif" font-size="14" lengthAdjust="spacing" textLength="83.1737" x="282.2931" y="28.432">basestations</text><line style="stroke:#181818;stroke-width:0.5;" x1="230.52" x2="386.9174" y1="39" y2="39"/><ellipse cx="240.52" cy="54.034" fill="none" rx="3" ry="3" style="stroke:#038048;stroke-width:1;"/><text fill="#000000" font-family="sans-serif" font-size="14" lengthAdjust="spacing" textLength="93.7437" x="249.52" y="57.9659">id : serial &#171;PK&#187;</text><line style="stroke:#181818;stroke-width:1;" x1="230.52" x2="386.9174" y1="66.0679" y2="66.0679"/><text fill="#000000" font-family="sans-serif" font-size="14" lengthAdjust="spacing" textLength="146.3974" x="235.52" y="85.0339">name : text &#171;UNIQUE&#187;</text><text fill="#000000" font-family="sans-serif" font-size="14" lengthAdjust="spacing" textLength="133.7415" x="235.52" y="104.1018">password_salt : uuid</text><text fill="#000000" font-family="sans-serif" font-size="14" lengthAdjust="spacing" textLength="100.1836" x="235.52" y="123.1697">password : text</text><text fill="#000000" font-family="sans-serif" font-size="14" lengthAdjust="spacing" textLength="102.8436" x="235.52" y="142.2376">active : boolean</text></g><!--class utb--><g class="entity" data-entity="utb" data-source-line="23" data-uid="ent0004" id="entity_utb"><rect fill="#F1F1F1" height="105.2038" rx="2.5" ry="2.5" style="stroke:#181818;stroke-width:0.5;" width="213.2633" x="98.09" y="210.34"/><ellipse cx="129.4663" cy="226.34" fill="#ADD1B2" rx="11" ry="11" style="stroke:#181818;stroke-width:1;"/><path d="M125.8257,232.84 L125.8257,220.6994 L133.4819,220.6994 L133.4819,222.8244 L128.2007,222.8244 L128.2007,225.4806 L133.2163,225.4806 L133.2163,227.6056 L128.2007,227.6056 L128.2007,230.715 L133.4819,230.715 L133.4819,232.84 L125.8257,232.84 Z " fill="#000000"/><text fill="#000000" font-family="sans-serif" font-size="14" lengthAdjust="spacing" textLength="144.8715" x="147.1055" y="231.772">users_to_basestations</text><line style="stroke:#181818;stroke-width:0.5;" x1="99.09" x2="310.3533" y1="242.34" y2="242.34"/><ellipse cx="109.09" cy="257.374" fill="#000000" rx="3" ry="3" style="stroke:#000000;stroke-width:1;"/><text fill="#000000" font-family="sans-serif" font-size="14" lengthAdjust="spacing" textLength="139.8315" x="118.09" y="261.3059">user_id : integer &#171;FK&#187;</text><ellipse cx="109.09" cy="276.4419" fill="#000000" rx="3" ry="3" style="stroke:#000000;stroke-width:1;"/><text fill="#000000" font-family="sans-serif" font-size="14" lengthAdjust="spacing" textLength="187.2633" x="118.09" y="280.3739">basestation_id : integer &#171;FK&#187;</text><line style="stroke:#181818;stroke-width:1;" x1="99.09" x2="310.3533" y1="288.4758" y2="288.4758"/><text fill="#000000" font-family="sans-serif" font-size="14" lengthAdjust="spacing" textLength="106.3996" x="104.09" y="307.4418">owner : boolean</text></g><!--link users to utb--><g class="link" data-entity-1="users" data-entity-2="utb" data-source-line="32" data-uid="lnk5" id="link_users_utb"><path codeLine="32" d="M146.26,149.05 C146.26,171.4 146.26,170.36 146.26,191.84" fill="none" id="users-utb" style="stroke:#181818;stroke-width:1;"/><line style="stroke:#181818;stroke-width:1;" x1="142.26" x2="150.26" y1="145.05" y2="145.05"/><line style="stroke:#181818;stroke-width:1;" x1="142.26" x2="150.26" y1="148.05" y2="148.05"/><line style="stroke:#181818;stroke-width:1;" x1="146.26" x2="146.26" y1="149.05" y2="141.05"/><line style="stroke:#181818;stroke-width:1;" x1="146.26" x2="152.26" y1="201.84" y2="209.84"/><line style="stroke:#181818;stroke-width:1;" x1="146.26" x2="140.26" y1="201.84" y2="209.84"/><line style="stroke:#181818;stroke-width:1;" x1="146.26" x2="146.26" y1="201.84" y2="209.84"/><ellipse cx="146.26" cy="195.84" fill="none" rx="4" ry="4" style="stroke:#181818;stroke-width:1;"/><text fill="#000000" font-family="sans-serif" font-size="13" lengthAdjust="spacing" textLength="64.493" x="81.26" y="171.347">has access</text></g><!--link basestations to utb--><g class="link" data-entity-1="basestations" data-entity-2="utb" data-source-line="33" data-uid="lnk6" id="link_basestations_utb"><path codeLine="33" d="M270.43,158.7 C270.43,178.49 270.43,173.57 270.43,192.06" fill="none" id="basestations-utb" style="stroke:#181818;stroke-width:1;"/><line style="stroke:#181818;stroke-width:1;" x1="266.43" x2="274.43" y1="154.7" y2="154.7"/><line style="stroke:#181818;stroke-width:1;" x1="266.43" x2="274.43" y1="157.7" y2="157.7"/><line style="stroke:#181818;stroke-width:1;" x1="270.43" x2="270.43" y1="158.7" y2="150.7"/><line style="stroke:#181818;stroke-width:1;" x1="270.43" x2="276.43" y1="202.06" y2="210.06"/><line style="stroke:#181818;stroke-width:1;" x1="270.43" x2="264.43" y1="202.06" y2="210.06"/><line style="stroke:#181818;stroke-width:1;" x1="270.43" x2="270.43" y1="202.06" y2="210.06"/><ellipse cx="270.43" cy="196.06" fill="none" rx="4" ry="4" style="stroke:#181818;stroke-width:1;"/><text fill="#000000" font-family="sans-serif" font-size="13" lengthAdjust="spacing" textLength="70.3951" x="199.43" y="176.277">assigned to</text></g><!--SRC=[fP7FJiCm3CRlUGgh5wIXli0qTWC98I7-QEVARKrhBKkgsgLK6-zEcY3eX107SeYIpv_ZdntPi-kmnmDOTgHJH-1xRRsHhm0vPPsUTR84FLMAhh6qY4kBjH_PDV22LiYOb03P8DHB1YWGJt0q09V0DQmXt1ajR3OFTzjjaFCyRBFBuO52NEbDGtHtV_kukuwE3aL6tzU5eDNW60Qk5_9dZdd_Bb-Ya2WgUvSebiAVCFy50S1A-NL-e_JU4hebMnn8eRxu0Jbe6TbMSHn516Idr50VE6uIuMhPoo-Us8KVNT3E42xWQbxmH3QLRRcJf1cJFkfqodD_Z2XhoDf0XLL58fav6-6vBVJFZQCQr6Vc0m00]--></g></svg>