<svg xmlns="http://www.w3.org/2000/svg" xmlns:xlink="http://www.w3.org/1999/xlink" contentStyleType="text/css" data-diagram-type="SEQUENCE" height="542px" preserveAspectRatio="none" style="width:916px;height:542px;background:#FFFFFF;" version="1.1" viewBox="0 0 916 542" width="916px" zoomAndPan="magnify"><defs/><g><rect fill="none" height="90.3984" style="stroke:#000000;stroke-width:1.5;" width="305.1943" x="151.6172" y="111.5625"/><g><title>Database Manager</title><rect fill="#000000" fill-opacity="0.00000" height="470.8594" width="8" x="74.3086" y="36.2969"/><line style="stroke:#181818;stroke-width:0.5;stroke-dasharray:5,5;" x1="78" x2="78" y1="36.2969" y2="507.1563"/></g><g><title>Camera Manager</title><rect fill="#000000" fill-opacity="0.00000" height="470.8594" width="8" x="224.9956" y="36.2969"/><line style="stroke:#181818;stroke-width:0.5;stroke-dasharray:5,5;" x1="228.6172" x2="228.6172" y1="36.2969" y2="507.1563"/></g><g><title>WebRTC Producer</title><rect fill="#000000" fill-opacity="0.00000" height="470.8594" width="8" x="372.5928" y="36.2969"/><line style="stroke:#181818;stroke-width:0.5;stroke-dasharray:5,5;" x1="376.374" x2="376.374" y1="36.2969" y2="507.1563"/></g><g><title>Remote</title><rect fill="#000000" fill-opacity="0.00000" height="470.8594" width="8" x="786.1929" y="36.2969"/><line style="stroke:#181818;stroke-width:0.5;stroke-dasharray:5,5;" x1="789.8696" x2="789.8696" y1="36.2969" y2="507.1563"/></g><g class="participant participant-head" data-participant="db"><rect fill="#E2E2F0" height="30.2969" rx="2.5" ry="2.5" style="stroke:#181818;stroke-width:0.5;" width="146.6172" x="5" y="5"/><text fill="#000000" font-family="sans-serif" font-size="14" lengthAdjust="spacing" textLength="132.6172" x="12" y="24.9951">Database Manager</text></g><g class="participant participant-tail" data-participant="db"><rect fill="#E2E2F0" height="30.2969" rx="2.5" ry="2.5" style="stroke:#181818;stroke-width:0.5;" width="146.6172" x="5" y="506.1563"/><text fill="#000000" font-family="sans-serif" font-size="14" lengthAdjust="spacing" textLength="132.6172" x="12" y="526.1514">Database Manager</text></g><g class="participant participant-head" data-participant="cameraman"><rect fill="#E2E2F0" height="30.2969" rx="2.5" ry="2.5" style="stroke:#181818;stroke-width:0.5;" width="134.7568" x="161.6172" y="5"/><text fill="#000000" font-family="sans-serif" font-size="14" lengthAdjust="spacing" textLength="120.7568" x="168.6172" y="24.9951">Camera Manager</text></g><g class="participant participant-tail" data-participant="cameraman"><rect fill="#E2E2F0" height="30.2969" rx="2.5" ry="2.5" style="stroke:#181818;stroke-width:0.5;" width="134.7568" x="161.6172" y="506.1563"/><text fill="#000000" font-family="sans-serif" font-size="14" lengthAdjust="spacing" textLength="120.7568" x="168.6172" y="526.1514">Camera Manager</text></g><g class="participant participant-head" data-participant="Webrtc"><rect fill="#E2E2F0" height="30.2969" rx="2.5" ry="2.5" style="stroke:#181818;stroke-width:0.5;" width="140.4375" x="306.374" y="5"/><text fill="#000000" font-family="sans-serif" font-size="14" lengthAdjust="spacing" textLength="126.4375" x="313.374" y="24.9951">WebRTC Producer</text></g><g class="participant participant-tail" data-participant="Webrtc"><rect fill="#E2E2F0" height="30.2969" rx="2.5" ry="2.5" style="stroke:#181818;stroke-width:0.5;" width="140.4375" x="306.374" y="506.1563"/><text fill="#000000" font-family="sans-serif" font-size="14" lengthAdjust="spacing" textLength="126.4375" x="313.374" y="526.1514">WebRTC Producer</text></g><g class="participant participant-head" data-participant="Remote"><rect fill="#E2E2F0" height="30.2969" rx="2.5" ry="2.5" style="stroke:#181818;stroke-width:0.5;" width="68.6465" x="755.8696" y="5"/><text fill="#000000" font-family="sans-serif" font-size="14" lengthAdjust="spacing" textLength="54.6465" x="762.8696" y="24.9951">Remote</text></g><g class="participant participant-tail" data-participant="Remote"><rect fill="#E2E2F0" height="30.2969" rx="2.5" ry="2.5" style="stroke:#181818;stroke-width:0.5;" width="68.6465" x="755.8696" y="506.1563"/><text fill="#000000" font-family="sans-serif" font-size="14" lengthAdjust="spacing" textLength="54.6465" x="762.8696" y="526.1514">Remote</text></g><g class="message" data-participant-1="cameraman" data-participant-2="db"><polygon fill="#181818" points="89.3086,63.4297,79.3086,67.4297,89.3086,71.4297,85.3086,67.4297" style="stroke:#181818;stroke-width:1;"/><line style="stroke:#181818;stroke-width:1;" x1="83.3086" x2="227.9956" y1="67.4297" y2="67.4297"/><text fill="#000000" font-family="sans-serif" font-size="13" lengthAdjust="spacing" textLength="91.3618" x="95.3086" y="62.3638">pollCameras()</text></g><g class="message" data-participant-1="db" data-participant-2="cameraman"><polygon fill="#181818" points="216.9956,92.5625,226.9956,96.5625,216.9956,100.5625,220.9956,96.5625" style="stroke:#181818;stroke-width:1;"/><line style="stroke:#181818;stroke-width:1;" x1="78.3086" x2="222.9956" y1="96.5625" y2="96.5625"/><text fill="#000000" font-family="sans-serif" font-size="13" lengthAdjust="spacing" textLength="121.5259" x="85.3086" y="91.4966">Available Cameras</text></g><path d="M151.6172,111.5625 L216.0601,111.5625 L216.0601,118.6953 L206.0601,128.6953 L151.6172,128.6953 L151.6172,111.5625" fill="#EEEEEE" style="stroke:#000000;stroke-width:1.5;"/><rect fill="none" height="90.3984" style="stroke:#000000;stroke-width:1.5;" width="305.1943" x="151.6172" y="111.5625"/><text fill="#000000" font-family="sans-serif" font-size="13" font-weight="bold" lengthAdjust="spacing" textLength="19.4429" x="166.6172" y="124.6294">alt</text><text fill="#000000" font-family="sans-serif" font-size="11" font-weight="bold" lengthAdjust="spacing" textLength="148.2314" x="231.0601" y="123.7729">[New Camera Detected]</text><g class="message" data-participant-1="cameraman" data-participant-2="Webrtc"><polygon fill="#181818" points="364.5928,145.8281,374.5928,149.8281,364.5928,153.8281,368.5928,149.8281" style="stroke:#181818;stroke-width:1;"/><line style="stroke:#181818;stroke-width:1;" x1="228.9956" x2="370.5928" y1="149.8281" y2="149.8281"/><text fill="#000000" font-family="sans-serif" font-size="13" lengthAdjust="spacing" textLength="92.917" x="235.9956" y="144.7622">Start(Camera)</text></g><line style="stroke:#000000;stroke-width:1;stroke-dasharray:2,2;" x1="151.6172" x2="456.8115" y1="158.8281" y2="158.8281"/><g class="message" data-participant-1="cameraman" data-participant-2="cameraman"><line style="stroke:#181818;stroke-width:1;" x1="228.9956" x2="270.9956" y1="180.9609" y2="180.9609"/><line style="stroke:#181818;stroke-width:1;" x1="270.9956" x2="270.9956" y1="180.9609" y2="193.9609"/><line style="stroke:#181818;stroke-width:1;" x1="229.9956" x2="270.9956" y1="193.9609" y2="193.9609"/><polygon fill="#181818" points="239.9956,189.9609,229.9956,193.9609,239.9956,197.9609,235.9956,193.9609" style="stroke:#181818;stroke-width:1;"/><text fill="#000000" font-family="sans-serif" font-size="13" lengthAdjust="spacing" textLength="62.7974" x="235.9956" y="175.895">Sleep(10)</text></g><g class="message" data-participant-1="Webrtc" data-participant-2="Remote"><polygon fill="#181818" points="778.1929,226.0938,788.1929,230.0938,778.1929,234.0938,782.1929,230.0938" style="stroke:#181818;stroke-width:1;"/><line style="stroke:#181818;stroke-width:1;" x1="376.5928" x2="784.1929" y1="230.0938" y2="230.0938"/><text fill="#000000" font-family="sans-serif" font-size="13" lengthAdjust="spacing" textLength="212.0435" x="383.5928" y="225.0278">ConnectRequest(Basestation_id)</text></g><g class="message" data-participant-1="Remote" data-participant-2="Webrtc"><polygon fill="#181818" points="387.5928,255.2266,377.5928,259.2266,387.5928,263.2266,383.5928,259.2266" style="stroke:#181818;stroke-width:1;"/><line style="stroke:#181818;stroke-width:1;" x1="381.5928" x2="789.1929" y1="259.2266" y2="259.2266"/><text fill="#000000" font-family="sans-serif" font-size="13" lengthAdjust="spacing" textLength="192.6006" x="393.5928" y="254.1606">ConnectResponse(Stream_id)</text></g><g class="message" data-participant-1="Webrtc" data-participant-2="Remote"><polygon fill="#181818" points="778.1929,284.3594,788.1929,288.3594,778.1929,292.3594,782.1929,288.3594" style="stroke:#181818;stroke-width:1;"/><line style="stroke:#181818;stroke-width:1;" x1="376.5928" x2="784.1929" y1="288.3594" y2="288.3594"/><text fill="#000000" font-family="sans-serif" font-size="13" lengthAdjust="spacing" textLength="389.6001" x="383.5928" y="283.2935">RegisterProducerRequest(Basestation_id, Stream_id, name)</text></g><g class="message" data-participant-1="Remote" data-participant-2="Webrtc"><polygon fill="#181818" points="387.5928,313.4922,377.5928,317.4922,387.5928,321.4922,383.5928,317.4922" style="stroke:#181818;stroke-width:1;"/><line style="stroke:#181818;stroke-width:1;" x1="381.5928" x2="789.1929" y1="317.4922" y2="317.4922"/><text fill="#000000" font-family="sans-serif" font-size="13" lengthAdjust="spacing" textLength="320.9819" x="393.5928" y="312.4263">RegisterProducerResponse(Stream_id, viewer_id)</text></g><g class="message" data-participant-1="Webrtc" data-participant-2="Webrtc"><line style="stroke:#181818;stroke-width:1;" x1="376.5928" x2="418.5928" y1="346.625" y2="346.625"/><line style="stroke:#181818;stroke-width:1;" x1="418.5928" x2="418.5928" y1="346.625" y2="359.625"/><line style="stroke:#181818;stroke-width:1;" x1="377.5928" x2="418.5928" y1="359.625" y2="359.625"/><polygon fill="#181818" points="387.5928,355.625,377.5928,359.625,387.5928,363.625,383.5928,359.625" style="stroke:#181818;stroke-width:1;"/><text fill="#000000" font-family="sans-serif" font-size="13" lengthAdjust="spacing" textLength="97.5762" x="383.5928" y="341.5591">Generate Offer</text></g><g class="message" data-participant-1="Webrtc" data-participant-2="Remote"><polygon fill="#181818" points="778.1929,384.7578,788.1929,388.7578,778.1929,392.7578,782.1929,388.7578" style="stroke:#181818;stroke-width:1;"/><line style="stroke:#181818;stroke-width:1;" x1="376.5928" x2="784.1929" y1="388.7578" y2="388.7578"/><text fill="#000000" font-family="sans-serif" font-size="13" lengthAdjust="spacing" textLength="122.9224" x="383.5928" y="383.6919">StreamOffer(Offer)</text></g><g class="message" data-participant-1="Remote" data-participant-2="Remote"><line style="stroke:#181818;stroke-width:1;" x1="790.1929" x2="832.1929" y1="417.8906" y2="417.8906"/><line style="stroke:#181818;stroke-width:1;" x1="832.1929" x2="832.1929" y1="417.8906" y2="430.8906"/><line style="stroke:#181818;stroke-width:1;" x1="791.1929" x2="832.1929" y1="430.8906" y2="430.8906"/><polygon fill="#181818" points="801.1929,426.8906,791.1929,430.8906,801.1929,434.8906,797.1929,430.8906" style="stroke:#181818;stroke-width:1;"/><text fill="#000000" font-family="sans-serif" font-size="13" lengthAdjust="spacing" textLength="112.728" x="797.1929" y="412.8247">Generate Answer</text></g><g class="message" data-participant-1="Remote" data-participant-2="Webrtc"><polygon fill="#181818" points="387.5928,456.0234,377.5928,460.0234,387.5928,464.0234,383.5928,460.0234" style="stroke:#181818;stroke-width:1;"/><line style="stroke:#181818;stroke-width:1;" x1="381.5928" x2="789.1929" y1="460.0234" y2="460.0234"/><text fill="#000000" font-family="sans-serif" font-size="13" lengthAdjust="spacing" textLength="153.2261" x="393.5928" y="454.9575">StreamAnswer(Answer)</text></g><g class="message" data-participant-1="Webrtc" data-participant-2="Remote"><polygon fill="#181818" points="778.1929,485.1563,788.1929,489.1563,778.1929,493.1563,782.1929,489.1563" style="stroke:#181818;stroke-width:1;"/><line style="stroke:#181818;stroke-width:1;" x1="376.5928" x2="784.1929" y1="489.1563" y2="489.1563"/><text fill="#000000" font-family="sans-serif" font-size="13" lengthAdjust="spacing" textLength="337.1367" x="383.5928" y="484.0903">Stream Real-time Video using established protocols</text></g><!--SRC=[TP1FRuCm3CNl-HHMJo2rqdRjOLBNIZtjZ-Yq7IT3t2vII5ZYjbz_XZ2e6EC0CVdvlMSt6DXKfa77e4l028iTCfOO2PxGuOd2GZKtK8Kr1QpHTUosg-R93oe3Lnqcn-9j2w_1wtCrvGggFPDIe_BgeSsoXiPRcnnYbYlv9HSZjORD1Ot5qXBqb4BBy4pNleOTCLLCMe4yOsUhqwTRmu4bIvOQSaLM1f_W4zU39Mgo-pk1dLQzZZ1f3W6stZcnBUZxJ96pHzbbP6JZtQVHkUgvsmn3HsoyYvGTE13M7JrdKD39HARmkyzvfoKCCajmCi2izL-jQOObN0nTANHnnZI3mfwSx4PaNuv72dDvarHtdNNlsoG3DUXiN1IxkR19ADrdwPF_RoWrsXMRck3TQF9mZiQTe5rHQKty8WrDyEmhRwFIX1MRI-kV17y0]--></g></svg>