<svg xmlns="http://www.w3.org/2000/svg" xmlns:xlink="http://www.w3.org/1999/xlink" contentStyleType="text/css" data-diagram-type="SEQUENCE" height="870px" preserveAspectRatio="none" style="width:842px;height:870px;background:#FFFFFF;" version="1.1" viewBox="0 0 842 870" width="842px" zoomAndPan="magnify"><defs/><g><g><title>Remote</title><rect fill="#009900" height="283.6481" style="stroke:#181818;stroke-width:1;" width="10" x="623.9661" y="388.4221"/></g><rect fill="none" height="193.2361" style="stroke:#000000;stroke-width:1.5;" width="439.9267" x="10" y="101.0679"/><rect fill="none" height="51.412" style="stroke:#000000;stroke-width:1.5;" width="280.8931" x="159.0335" y="191.186"/><rect fill="none" height="193.2361" style="stroke:#000000;stroke-width:1.5;" width="404.4839" x="277.0391" y="403.4221"/><rect fill="none" height="96.118" style="stroke:#000000;stroke-width:1.5;" width="384.4839" x="287.0391" y="493.5401"/><rect fill="none" height="83.118" style="stroke:#000000;stroke-width:1.5;" width="549.4301" x="287.0391" y="687.0702"/><g><title>Database Manager</title><rect fill="#000000" fill-opacity="0.00000" height="703.1203" width="8" x="85.5168" y="84.0679"/><line style="stroke:#181818;stroke-width:0.5;stroke-dasharray:5,5;" x1="89" x2="89" y1="84.0679" y2="787.1882"/></g><g><title>Drone Manager</title><rect fill="#000000" fill-opacity="0.00000" height="703.1203" width="8" x="224.0363" y="84.0679"/><line style="stroke:#181818;stroke-width:0.5;stroke-dasharray:5,5;" x1="228.0335" x2="228.0335" y1="84.0679" y2="787.1882"/></g><g><title>WebRTC Producer</title><rect fill="#000000" fill-opacity="0.00000" height="703.1203" width="8" x="359.4829" y="84.0679"/><line style="stroke:#181818;stroke-width:0.5;stroke-dasharray:5,5;" x1="363.0391" x2="363.0391" y1="84.0679" y2="787.1882"/></g><g><title>Remote</title><rect fill="#000000" fill-opacity="0.00000" height="703.1203" width="8" x="624.9661" y="84.0679"/><line style="stroke:#181818;stroke-width:0.5;stroke-dasharray:5,5;" x1="628.4092" x2="628.4092" y1="84.0679" y2="787.1882"/></g><g><title>User</title><rect fill="#000000" fill-opacity="0.00000" height="703.1203" width="8" x="804.1603" y="84.0679"/><line style="stroke:#181818;stroke-width:0.5;stroke-dasharray:5,5;" x1="807.8513" x2="807.8513" y1="84.0679" y2="787.1882"/></g><g class="participant participant-head" data-participant="db"><rect fill="#E2E2F0" height="33.0679" rx="2.5" ry="2.5" style="stroke:#181818;stroke-width:0.5;" width="139.0335" x="20" y="50"/><text fill="#000000" font-family="sans-serif" font-size="14" lengthAdjust="spacing" textLength="125.0335" x="27" y="71.9659">Database Manager</text></g><g class="participant participant-tail" data-participant="db"><rect fill="#E2E2F0" height="33.0679" rx="2.5" ry="2.5" style="stroke:#181818;stroke-width:0.5;" width="139.0335" x="20" y="786.1882"/><text fill="#000000" font-family="sans-serif" font-size="14" lengthAdjust="spacing" textLength="125.0335" x="27" y="808.1542">Database Manager</text></g><g class="participant participant-head" data-participant="cameraman"><rect fill="#E2E2F0" height="33.0679" rx="2.5" ry="2.5" style="stroke:#181818;stroke-width:0.5;" width="118.0056" x="169.0335" y="50"/><text fill="#000000" font-family="sans-serif" font-size="14" lengthAdjust="spacing" textLength="104.0056" x="176.0335" y="71.9659">Drone Manager</text></g><g class="participant participant-tail" data-participant="cameraman"><rect fill="#E2E2F0" height="33.0679" rx="2.5" ry="2.5" style="stroke:#181818;stroke-width:0.5;" width="118.0056" x="169.0335" y="786.1882"/><text fill="#000000" font-family="sans-serif" font-size="14" lengthAdjust="spacing" textLength="104.0056" x="176.0335" y="808.1542">Drone Manager</text></g><g class="participant participant-head" data-participant="Webrtc"><rect fill="#E2E2F0" height="33.0679" rx="2.5" ry="2.5" style="stroke:#181818;stroke-width:0.5;" width="132.8875" x="297.0391" y="50"/><text fill="#000000" font-family="sans-serif" font-size="14" lengthAdjust="spacing" textLength="118.8875" x="304.0391" y="71.9659">WebRTC Producer</text></g><g class="participant participant-tail" data-participant="Webrtc"><rect fill="#E2E2F0" height="33.0679" rx="2.5" ry="2.5" style="stroke:#181818;stroke-width:0.5;" width="132.8875" x="297.0391" y="786.1882"/><text fill="#000000" font-family="sans-serif" font-size="14" lengthAdjust="spacing" textLength="118.8875" x="304.0391" y="808.1542">WebRTC Producer</text></g><g class="participant participant-head" data-participant="Remote"><rect fill="#E2E2F0" height="33.0679" rx="2.5" ry="2.5" style="stroke:#181818;stroke-width:0.5;" width="65.1138" x="596.4092" y="50"/><text fill="#000000" font-family="sans-serif" font-size="14" lengthAdjust="spacing" textLength="51.1138" x="603.4092" y="71.9659">Remote</text></g><g class="participant participant-tail" data-participant="Remote"><rect fill="#E2E2F0" height="33.0679" rx="2.5" ry="2.5" style="stroke:#181818;stroke-width:0.5;" width="65.1138" x="596.4092" y="786.1882"/><text fill="#000000" font-family="sans-serif" font-size="14" lengthAdjust="spacing" textLength="51.1138" x="603.4092" y="808.1542">Remote</text></g><g class="participant participant-head" data-participant="User"><text fill="#000000" font-family="sans-serif" font-size="14" lengthAdjust="spacing" textLength="30.6179" x="789.8513" y="79.9659">User</text><ellipse cx="808.1603" cy="13.5" fill="#E2E2F0" rx="8" ry="8" style="stroke:#181818;stroke-width:0.5;"/><path d="M808.1603,21.5 L808.1603,48.5 M795.1603,29.5 L821.1603,29.5 M808.1603,48.5 L795.1603,63.5 M808.1603,48.5 L821.1603,63.5" fill="none" style="stroke:#181818;stroke-width:0.5;"/></g><g class="participant participant-tail" data-participant="User"><text fill="#000000" font-family="sans-serif" font-size="14" lengthAdjust="spacing" textLength="30.6179" x="789.8513" y="801.1542">User</text><ellipse cx="808.1603" cy="813.7562" fill="#E2E2F0" rx="8" ry="8" style="stroke:#181818;stroke-width:0.5;"/><path d="M808.1603,821.7562 L808.1603,848.7562 M795.1603,829.7562 L821.1603,829.7562 M808.1603,848.7562 L795.1603,863.7562 M808.1603,848.7562 L821.1603,863.7562" fill="none" style="stroke:#181818;stroke-width:0.5;"/></g><g><title>Remote</title><rect fill="#009900" height="283.6481" style="stroke:#181818;stroke-width:1;" width="10" x="623.9661" y="388.4221"/></g><path d="M10,101.0679 L83.34,101.0679 L83.34,110.7739 L73.34,120.7739 L10,120.7739 L10,101.0679" fill="#EEEEEE" style="stroke:#000000;stroke-width:1.5;"/><rect fill="none" height="193.2361" style="stroke:#000000;stroke-width:1.5;" width="439.9267" x="10" y="101.0679"/><text fill="#000000" font-family="sans-serif" font-size="13" font-weight="bold" lengthAdjust="spacing" textLength="28.34" x="25" y="115.9649">loop</text><g class="message" data-participant-1="cameraman" data-participant-2="db"><polygon fill="#181818" points="100.5168,140.4799,90.5168,144.4799,100.5168,148.4799,96.5168,144.4799" style="stroke:#181818;stroke-width:1;"/><line style="stroke:#181818;stroke-width:1;" x1="94.5168" x2="227.0363" y1="144.4799" y2="144.4799"/><text fill="#000000" font-family="sans-serif" font-size="13" lengthAdjust="spacing" textLength="74.6851" x="106.5168" y="138.6709">pollDrones()</text></g><g class="message" data-participant-1="db" data-participant-2="cameraman"><polygon fill="#181818" points="216.0363,172.186,226.0363,176.186,216.0363,180.186,220.0363,176.186" style="stroke:#181818;stroke-width:1;"/><line style="stroke:#181818;stroke-width:1;" x1="89.5168" x2="222.0363" y1="176.186" y2="176.186"/><text fill="#000000" font-family="sans-serif" font-size="13" lengthAdjust="spacing" textLength="102.5831" x="96.5168" y="170.377">Available Drones</text></g><path d="M159.0335,191.186 L221.3365,191.186 L221.3365,200.892 L211.3365,210.892 L159.0335,210.892 L159.0335,191.186" fill="#EEEEEE" style="stroke:#000000;stroke-width:1.5;"/><rect fill="none" height="51.412" style="stroke:#000000;stroke-width:1.5;" width="280.8931" x="159.0335" y="191.186"/><text fill="#000000" font-family="sans-serif" font-size="13" font-weight="bold" lengthAdjust="spacing" textLength="17.303" x="174.0335" y="206.083">alt</text><text fill="#000000" font-family="sans-serif" font-size="11" font-weight="bold" lengthAdjust="spacing" textLength="121.4172" x="236.3365" y="204.9449">[New Drone Detected]</text><g class="message" data-participant-1="cameraman" data-participant-2="Webrtc"><polygon fill="#181818" points="351.4829,230.598,361.4829,234.598,351.4829,238.598,355.4829,234.598" style="stroke:#181818;stroke-width:1;"/><line style="stroke:#181818;stroke-width:1;" x1="228.0363" x2="357.4829" y1="234.598" y2="234.598"/><text fill="#000000" font-family="sans-serif" font-size="13" lengthAdjust="spacing" textLength="75.0751" x="235.0363" y="228.789">Start(Drone)</text></g><g class="message" data-participant-1="cameraman" data-participant-2="cameraman"><line style="stroke:#181818;stroke-width:1;" x1="228.0363" x2="270.0363" y1="273.304" y2="273.304"/><line style="stroke:#181818;stroke-width:1;" x1="270.0363" x2="270.0363" y1="273.304" y2="286.304"/><line style="stroke:#181818;stroke-width:1;" x1="229.0363" x2="270.0363" y1="286.304" y2="286.304"/><polygon fill="#181818" points="239.0363,282.304,229.0363,286.304,239.0363,290.304,235.0363,286.304" style="stroke:#181818;stroke-width:1;"/><text fill="#000000" font-family="sans-serif" font-size="13" lengthAdjust="spacing" textLength="55.8221" x="235.0363" y="267.495">Sleep(10)</text></g><g class="message" data-participant-1="Webrtc" data-participant-2="Remote"><polygon fill="#181818" points="616.9661,321.01,626.9661,325.01,616.9661,329.01,620.9661,325.01" style="stroke:#181818;stroke-width:1;"/><line style="stroke:#181818;stroke-width:1;" x1="363.4829" x2="622.9661" y1="325.01" y2="325.01"/><text fill="#000000" font-family="sans-serif" font-size="13" lengthAdjust="spacing" textLength="196.4952" x="370.4829" y="319.201">ConnectRequest(Basestation_id)</text></g><g class="message" data-participant-1="Remote" data-participant-2="Webrtc"><polygon fill="#181818" points="374.4829,352.716,364.4829,356.716,374.4829,360.716,370.4829,356.716" style="stroke:#181818;stroke-width:1;"/><line style="stroke:#181818;stroke-width:1;" x1="368.4829" x2="627.9661" y1="356.716" y2="356.716"/><text fill="#000000" font-family="sans-serif" font-size="13" lengthAdjust="spacing" textLength="178.4122" x="380.4829" y="350.907">ConnectResponse(Stream_id)</text></g><g class="message" data-participant-1="User" data-participant-2="Remote"><polygon fill="#181818" points="644.9661,384.4221,634.9661,388.4221,644.9661,392.4221,640.9661,388.4221" style="stroke:#181818;stroke-width:1;"/><line style="stroke:#181818;stroke-width:1;" x1="638.9661" x2="807.1603" y1="388.4221" y2="388.4221"/><text fill="#000000" font-family="sans-serif" font-size="13" lengthAdjust="spacing" textLength="155.1942" x="650.9661" y="382.6131">RequestStream(drone_id)</text></g><path d="M277.0391,403.4221 L350.3792,403.4221 L350.3792,413.1281 L340.3792,423.1281 L277.0391,423.1281 L277.0391,403.4221" fill="#EEEEEE" style="stroke:#000000;stroke-width:1.5;"/><rect fill="none" height="193.2361" style="stroke:#000000;stroke-width:1.5;" width="404.4839" x="277.0391" y="403.4221"/><text fill="#000000" font-family="sans-serif" font-size="13" font-weight="bold" lengthAdjust="spacing" textLength="28.34" x="292.0391" y="418.3191">loop</text><text fill="#000000" font-family="sans-serif" font-size="11" font-weight="bold" lengthAdjust="spacing" textLength="27.5438" x="365.3792" y="417.181">[Poll]</text><g class="message" data-participant-1="Webrtc" data-participant-2="Remote"><polygon fill="#181818" points="611.9661,442.8341,621.9661,446.8341,611.9661,450.8341,615.9661,446.8341" style="stroke:#181818;stroke-width:1;"/><line style="stroke:#181818;stroke-width:1;" x1="363.4829" x2="617.9661" y1="446.8341" y2="446.8341"/><text fill="#000000" font-family="sans-serif" font-size="13" lengthAdjust="spacing" textLength="236.4832" x="370.4829" y="441.0251">PollRequest(Basestation_id, Stream_id)</text></g><g class="message" data-participant-1="Remote" data-participant-2="Webrtc"><polygon fill="#181818" points="374.4829,474.5401,364.4829,478.5401,374.4829,482.5401,370.4829,478.5401" style="stroke:#181818;stroke-width:1;"/><line style="stroke:#181818;stroke-width:1;" x1="368.4829" x2="622.9661" y1="478.5401" y2="478.5401"/><text fill="#000000" font-family="sans-serif" font-size="13" lengthAdjust="spacing" textLength="184.1972" x="380.4829" y="472.7311">PollResponse(stream_needed)</text></g><path d="M287.0391,493.5401 L369.6742,493.5401 L369.6742,503.2461 L359.6742,513.2461 L287.0391,513.2461 L287.0391,493.5401" fill="#EEEEEE" style="stroke:#000000;stroke-width:1.5;"/><rect fill="none" height="96.118" style="stroke:#000000;stroke-width:1.5;" width="384.4839" x="287.0391" y="493.5401"/><text fill="#000000" font-family="sans-serif" font-size="13" font-weight="bold" lengthAdjust="spacing" textLength="37.635" x="302.0391" y="508.4371">break</text><text fill="#000000" font-family="sans-serif" font-size="11" font-weight="bold" lengthAdjust="spacing" textLength="121.4171" x="384.6742" y="507.299">[stream_need == True]</text><g class="message" data-participant-1="Webrtc" data-participant-2="Webrtc"><line style="stroke:#181818;stroke-width:1;" x1="363.4829" x2="405.4829" y1="536.9521" y2="536.9521"/><line style="stroke:#181818;stroke-width:1;" x1="405.4829" x2="405.4829" y1="536.9521" y2="549.9521"/><line style="stroke:#181818;stroke-width:1;" x1="364.4829" x2="405.4829" y1="549.9521" y2="549.9521"/><polygon fill="#181818" points="374.4829,545.9521,364.4829,549.9521,374.4829,553.9521,370.4829,549.9521" style="stroke:#181818;stroke-width:1;"/><text fill="#000000" font-family="sans-serif" font-size="13" lengthAdjust="spacing" textLength="92.0271" x="370.4829" y="531.1431">Generate Offer</text></g><g class="message" data-participant-1="Webrtc" data-participant-2="Remote"><polygon fill="#181818" points="611.9661,577.6582,621.9661,581.6582,611.9661,585.6582,615.9661,581.6582" style="stroke:#181818;stroke-width:1;"/><line style="stroke:#181818;stroke-width:1;" x1="363.4829" x2="617.9661" y1="581.6582" y2="581.6582"/><text fill="#000000" font-family="sans-serif" font-size="13" lengthAdjust="spacing" textLength="115.3751" x="370.4829" y="575.8492">StreamOffer(Offer)</text></g><g class="message" data-participant-1="Remote" data-participant-2="Remote"><line style="stroke:#181818;stroke-width:1;" x1="633.9661" x2="675.9661" y1="627.3642" y2="627.3642"/><line style="stroke:#181818;stroke-width:1;" x1="675.9661" x2="675.9661" y1="627.3642" y2="640.3642"/><line style="stroke:#181818;stroke-width:1;" x1="634.9661" x2="675.9661" y1="640.3642" y2="640.3642"/><polygon fill="#181818" points="644.9661,636.3642,634.9661,640.3642,644.9661,644.3642,640.9661,640.3642" style="stroke:#181818;stroke-width:1;"/><text fill="#000000" font-family="sans-serif" font-size="13" lengthAdjust="spacing" textLength="105.7161" x="640.9661" y="621.5552">Generate Answer</text></g><g class="message" data-participant-1="Remote" data-participant-2="Webrtc"><polygon fill="#181818" points="374.4829,668.0702,364.4829,672.0702,374.4829,676.0702,370.4829,672.0702" style="stroke:#181818;stroke-width:1;"/><line style="stroke:#181818;stroke-width:1;" x1="368.4829" x2="627.9661" y1="672.0702" y2="672.0702"/><text fill="#000000" font-family="sans-serif" font-size="13" lengthAdjust="spacing" textLength="142.7531" x="380.4829" y="666.2612">StreamAnswer(Answer)</text></g><path d="M287.0391,687.0702 L360.3792,687.0702 L360.3792,696.7762 L350.3792,706.7762 L287.0391,706.7762 L287.0391,687.0702" fill="#EEEEEE" style="stroke:#000000;stroke-width:1.5;"/><rect fill="none" height="83.118" style="stroke:#000000;stroke-width:1.5;" width="549.4301" x="287.0391" y="687.0702"/><text fill="#000000" font-family="sans-serif" font-size="13" font-weight="bold" lengthAdjust="spacing" textLength="28.34" x="302.0391" y="701.9672">loop</text><text fill="#000000" font-family="sans-serif" font-size="11" font-weight="bold" lengthAdjust="spacing" textLength="49.1037" x="375.3792" y="700.8291">[WebRtc]</text><g class="message" data-participant-1="Webrtc" data-participant-2="User"><polygon fill="#181818" points="796.1603,726.4822,806.1603,730.4822,796.1603,734.4822,800.1603,730.4822" style="stroke:#181818;stroke-width:1;"/><line style="stroke:#181818;stroke-width:1;" x1="363.4829" x2="802.1603" y1="730.4822" y2="730.4822"/><text fill="#000000" font-family="sans-serif" font-size="13" lengthAdjust="spacing" textLength="313.9632" x="370.4829" y="724.6732">Stream Real-time Video using established protocols</text></g><g class="message" data-participant-1="User" data-participant-2="Webrtc"><polygon fill="#181818" points="374.4829,758.1882,364.4829,762.1882,374.4829,766.1882,370.4829,762.1882" style="stroke:#181818;stroke-width:1;"/><line style="stroke:#181818;stroke-width:1;" x1="368.4829" x2="807.1603" y1="762.1882" y2="762.1882"/><text fill="#000000" font-family="sans-serif" font-size="13" lengthAdjust="spacing" textLength="176.4882" x="380.4829" y="756.3792">Stream Real-time commands</text></g><!--SRC=[TPBBJiGm34Nt-GeBDXq9fB9a991uIAnuQ8R74hcfWOWqAOa7VXydAMqPXYxQAZc-lhbEZu6DDZqwXhO1ZB1tYOmDHe9hTFXAOK_rCqXZHm4xT8KDtlq3Fb4JM6TAVbVt5t0NVBlHszoAEi-aKBCFy10fA6MzxzNKwF0qMLj2xwtD3MErKB8YwnEqXBDFD1ORIr0WfK0Uj0mtz5NMu9AOD5ERjz8p2IIvmVCIrYmEgropo2ovKlFBrRpxsXBrrL6zK0bLWv90vNn2N7ZdfFcAFZOKkJgNY2CZ6- -UJRjG0pTtCLR4thj8rPe3OPTfbPBw9J_e5gPga_LCIh3c4mKPoFswFZwkwv8ot4cc-M0x3AUztMuFO6ObLUymNwe7vx7WZgYbeQIHbNUORS392To73OspcIoDebVa977fTFlo8ZVbBpcQBmOpLkNtDCSyeCdnM3AAdxdu9Uex3bLKotvLFd8LQIlZ4cswzQndDo6Fx4T3KBI7R3g2HzEIXqqqxXLIo8qryKtow8DdhxsDux2tVCmqjE_a7hOn7UuR]--></g></svg>