<svg xmlns="http://www.w3.org/2000/svg" xmlns:xlink="http://www.w3.org/1999/xlink" contentStyleType="text/css" data-diagram-type="SEQUENCE" height="615px" preserveAspectRatio="none" style="width:879px;height:615px;background:#FFFFFF;" version="1.1" viewBox="0 0 879 615" width="879px" zoomAndPan="magnify"><defs/><g><rect fill="none" height="193.2361" style="stroke:#000000;stroke-width:1.5;" width="450.2306" x="10" y="56.0679"/><rect fill="none" height="51.412" style="stroke:#000000;stroke-width:1.5;" width="291.1971" x="159.0335" y="146.186"/><g><title>Database Manager</title><rect fill="#000000" fill-opacity="0.00000" height="538.5902" width="8" x="85.5168" y="39.0679"/><line style="stroke:#181818;stroke-width:0.5;stroke-dasharray:5,5;" x1="89" x2="89" y1="39.0679" y2="577.6582"/></g><g><title>Camera Manager</title><rect fill="#000000" fill-opacity="0.00000" height="538.5902" width="8" x="229.1883" y="39.0679"/><line style="stroke:#181818;stroke-width:0.5;stroke-dasharray:5,5;" x1="233.0335" x2="233.0335" y1="39.0679" y2="577.6582"/></g><g><title>WebRTC Producer</title><rect fill="#000000" fill-opacity="0.00000" height="538.5902" width="8" x="369.7869" y="39.0679"/><line style="stroke:#181818;stroke-width:0.5;stroke-dasharray:5,5;" x1="373.3431" x2="373.3431" y1="39.0679" y2="577.6582"/></g><g><title>Remote</title><rect fill="#000000" fill-opacity="0.00000" height="538.5902" width="8" x="755.9672" y="39.0679"/><line style="stroke:#181818;stroke-width:0.5;stroke-dasharray:5,5;" x1="759.4103" x2="759.4103" y1="39.0679" y2="577.6582"/></g><g class="participant participant-head" data-participant="db"><rect fill="#E2E2F0" height="33.0679" rx="2.5" ry="2.5" style="stroke:#181818;stroke-width:0.5;" width="139.0335" x="20" y="5"/><text fill="#000000" font-family="sans-serif" font-size="14" lengthAdjust="spacing" textLength="125.0335" x="27" y="26.9659">Database Manager</text></g><g class="participant participant-tail" data-participant="db"><rect fill="#E2E2F0" height="33.0679" rx="2.5" ry="2.5" style="stroke:#181818;stroke-width:0.5;" width="139.0335" x="20" y="576.6582"/><text fill="#000000" font-family="sans-serif" font-size="14" lengthAdjust="spacing" textLength="125.0335" x="27" y="598.6241">Database Manager</text></g><g class="participant participant-head" data-participant="cameraman"><rect fill="#E2E2F0" height="33.0679" rx="2.5" ry="2.5" style="stroke:#181818;stroke-width:0.5;" width="128.3096" x="169.0335" y="5"/><text fill="#000000" font-family="sans-serif" font-size="14" lengthAdjust="spacing" textLength="114.3096" x="176.0335" y="26.9659">Camera Manager</text></g><g class="participant participant-tail" data-participant="cameraman"><rect fill="#E2E2F0" height="33.0679" rx="2.5" ry="2.5" style="stroke:#181818;stroke-width:0.5;" width="128.3096" x="169.0335" y="576.6582"/><text fill="#000000" font-family="sans-serif" font-size="14" lengthAdjust="spacing" textLength="114.3096" x="176.0335" y="598.6241">Camera Manager</text></g><g class="participant participant-head" data-participant="Webrtc"><rect fill="#E2E2F0" height="33.0679" rx="2.5" ry="2.5" style="stroke:#181818;stroke-width:0.5;" width="132.8875" x="307.3431" y="5"/><text fill="#000000" font-family="sans-serif" font-size="14" lengthAdjust="spacing" textLength="118.8875" x="314.3431" y="26.9659">WebRTC Producer</text></g><g class="participant participant-tail" data-participant="Webrtc"><rect fill="#E2E2F0" height="33.0679" rx="2.5" ry="2.5" style="stroke:#181818;stroke-width:0.5;" width="132.8875" x="307.3431" y="576.6582"/><text fill="#000000" font-family="sans-serif" font-size="14" lengthAdjust="spacing" textLength="118.8875" x="314.3431" y="598.6241">WebRTC Producer</text></g><g class="participant participant-head" data-participant="Remote"><rect fill="#E2E2F0" height="33.0679" rx="2.5" ry="2.5" style="stroke:#181818;stroke-width:0.5;" width="65.1138" x="727.4103" y="5"/><text fill="#000000" font-family="sans-serif" font-size="14" lengthAdjust="spacing" textLength="51.1138" x="734.4103" y="26.9659">Remote</text></g><g class="participant participant-tail" data-participant="Remote"><rect fill="#E2E2F0" height="33.0679" rx="2.5" ry="2.5" style="stroke:#181818;stroke-width:0.5;" width="65.1138" x="727.4103" y="576.6582"/><text fill="#000000" font-family="sans-serif" font-size="14" lengthAdjust="spacing" textLength="51.1138" x="734.4103" y="598.6241">Remote</text></g><path d="M10,56.0679 L83.34,56.0679 L83.34,65.7739 L73.34,75.7739 L10,75.7739 L10,56.0679" fill="#EEEEEE" style="stroke:#000000;stroke-width:1.5;"/><rect fill="none" height="193.2361" style="stroke:#000000;stroke-width:1.5;" width="450.2306" x="10" y="56.0679"/><text fill="#000000" font-family="sans-serif" font-size="13" font-weight="bold" lengthAdjust="spacing" textLength="28.34" x="25" y="70.9649">loop</text><g class="message" data-participant-1="cameraman" data-participant-2="db"><polygon fill="#181818" points="100.5168,95.4799,90.5168,99.4799,100.5168,103.4799,96.5168,99.4799" style="stroke:#181818;stroke-width:1;"/><line style="stroke:#181818;stroke-width:1;" x1="94.5168" x2="232.1883" y1="99.4799" y2="99.4799"/><text fill="#000000" font-family="sans-serif" font-size="13" lengthAdjust="spacing" textLength="84.2531" x="106.5168" y="93.6709">pollCameras()</text></g><g class="message" data-participant-1="db" data-participant-2="cameraman"><polygon fill="#181818" points="221.1883,127.186,231.1883,131.186,221.1883,135.186,225.1883,131.186" style="stroke:#181818;stroke-width:1;"/><line style="stroke:#181818;stroke-width:1;" x1="89.5168" x2="227.1883" y1="131.186" y2="131.186"/><text fill="#000000" font-family="sans-serif" font-size="13" lengthAdjust="spacing" textLength="112.1511" x="96.5168" y="125.377">Available Cameras</text></g><path d="M159.0335,146.186 L221.3365,146.186 L221.3365,155.892 L211.3365,165.892 L159.0335,165.892 L159.0335,146.186" fill="#EEEEEE" style="stroke:#000000;stroke-width:1.5;"/><rect fill="none" height="51.412" style="stroke:#000000;stroke-width:1.5;" width="291.1971" x="159.0335" y="146.186"/><text fill="#000000" font-family="sans-serif" font-size="13" font-weight="bold" lengthAdjust="spacing" textLength="17.303" x="174.0335" y="161.083">alt</text><text fill="#000000" font-family="sans-serif" font-size="11" font-weight="bold" lengthAdjust="spacing" textLength="130.3051" x="236.3365" y="159.9449">[New Camera Detected]</text><g class="message" data-participant-1="cameraman" data-participant-2="Webrtc"><polygon fill="#181818" points="361.7869,185.598,371.7869,189.598,361.7869,193.598,365.7869,189.598" style="stroke:#181818;stroke-width:1;"/><line style="stroke:#181818;stroke-width:1;" x1="233.1883" x2="367.7869" y1="189.598" y2="189.598"/><text fill="#000000" font-family="sans-serif" font-size="13" lengthAdjust="spacing" textLength="84.6431" x="240.1883" y="183.789">Start(Camera)</text></g><g class="message" data-participant-1="cameraman" data-participant-2="cameraman"><line style="stroke:#181818;stroke-width:1;" x1="233.1883" x2="275.1883" y1="228.304" y2="228.304"/><line style="stroke:#181818;stroke-width:1;" x1="275.1883" x2="275.1883" y1="228.304" y2="241.304"/><line style="stroke:#181818;stroke-width:1;" x1="234.1883" x2="275.1883" y1="241.304" y2="241.304"/><polygon fill="#181818" points="244.1883,237.304,234.1883,241.304,244.1883,245.304,240.1883,241.304" style="stroke:#181818;stroke-width:1;"/><text fill="#000000" font-family="sans-serif" font-size="13" lengthAdjust="spacing" textLength="55.8221" x="240.1883" y="222.495">Sleep(10)</text></g><g class="message" data-participant-1="Webrtc" data-participant-2="Remote"><polygon fill="#181818" points="747.9672,276.01,757.9672,280.01,747.9672,284.01,751.9672,280.01" style="stroke:#181818;stroke-width:1;"/><line style="stroke:#181818;stroke-width:1;" x1="373.7869" x2="753.9672" y1="280.01" y2="280.01"/><text fill="#000000" font-family="sans-serif" font-size="13" lengthAdjust="spacing" textLength="196.4952" x="380.7869" y="274.201">ConnectRequest(Basestation_id)</text></g><g class="message" data-participant-1="Remote" data-participant-2="Webrtc"><polygon fill="#181818" points="384.7869,307.716,374.7869,311.716,384.7869,315.716,380.7869,311.716" style="stroke:#181818;stroke-width:1;"/><line style="stroke:#181818;stroke-width:1;" x1="378.7869" x2="758.9672" y1="311.716" y2="311.716"/><text fill="#000000" font-family="sans-serif" font-size="13" lengthAdjust="spacing" textLength="178.4122" x="390.7869" y="305.907">ConnectResponse(Stream_id)</text></g><g class="message" data-participant-1="Webrtc" data-participant-2="Remote"><polygon fill="#181818" points="747.9672,339.4221,757.9672,343.4221,747.9672,347.4221,751.9672,343.4221" style="stroke:#181818;stroke-width:1;"/><line style="stroke:#181818;stroke-width:1;" x1="373.7869" x2="753.9672" y1="343.4221" y2="343.4221"/><text fill="#000000" font-family="sans-serif" font-size="13" lengthAdjust="spacing" textLength="362.1804" x="380.7869" y="337.6131">RegisterProducerRequest(Basestation_id, Stream_id, name)</text></g><g class="message" data-participant-1="Remote" data-participant-2="Webrtc"><polygon fill="#181818" points="384.7869,371.1281,374.7869,375.1281,384.7869,379.1281,380.7869,375.1281" style="stroke:#181818;stroke-width:1;"/><line style="stroke:#181818;stroke-width:1;" x1="378.7869" x2="758.9672" y1="375.1281" y2="375.1281"/><text fill="#000000" font-family="sans-serif" font-size="13" lengthAdjust="spacing" textLength="298.6493" x="390.7869" y="369.3191">RegisterProducerResponse(Stream_id, viewer_id)</text></g><g class="message" data-participant-1="Webrtc" data-participant-2="Webrtc"><line style="stroke:#181818;stroke-width:1;" x1="373.7869" x2="415.7869" y1="406.8341" y2="406.8341"/><line style="stroke:#181818;stroke-width:1;" x1="415.7869" x2="415.7869" y1="406.8341" y2="419.8341"/><line style="stroke:#181818;stroke-width:1;" x1="374.7869" x2="415.7869" y1="419.8341" y2="419.8341"/><polygon fill="#181818" points="384.7869,415.8341,374.7869,419.8341,384.7869,423.8341,380.7869,419.8341" style="stroke:#181818;stroke-width:1;"/><text fill="#000000" font-family="sans-serif" font-size="13" lengthAdjust="spacing" textLength="92.0271" x="380.7869" y="401.0251">Generate Offer</text></g><g class="message" data-participant-1="Webrtc" data-participant-2="Remote"><polygon fill="#181818" points="747.9672,447.5401,757.9672,451.5401,747.9672,455.5401,751.9672,451.5401" style="stroke:#181818;stroke-width:1;"/><line style="stroke:#181818;stroke-width:1;" x1="373.7869" x2="753.9672" y1="451.5401" y2="451.5401"/><text fill="#000000" font-family="sans-serif" font-size="13" lengthAdjust="spacing" textLength="115.3751" x="380.7869" y="445.7311">StreamOffer(Offer)</text></g><g class="message" data-participant-1="Remote" data-participant-2="Remote"><line style="stroke:#181818;stroke-width:1;" x1="759.9672" x2="801.9672" y1="483.2461" y2="483.2461"/><line style="stroke:#181818;stroke-width:1;" x1="801.9672" x2="801.9672" y1="483.2461" y2="496.2461"/><line style="stroke:#181818;stroke-width:1;" x1="760.9672" x2="801.9672" y1="496.2461" y2="496.2461"/><polygon fill="#181818" points="770.9672,492.2461,760.9672,496.2461,770.9672,500.2461,766.9672,496.2461" style="stroke:#181818;stroke-width:1;"/><text fill="#000000" font-family="sans-serif" font-size="13" lengthAdjust="spacing" textLength="105.7161" x="766.9672" y="477.4371">Generate Answer</text></g><g class="message" data-participant-1="Remote" data-participant-2="Webrtc"><polygon fill="#181818" points="384.7869,523.9521,374.7869,527.9521,384.7869,531.9521,380.7869,527.9521" style="stroke:#181818;stroke-width:1;"/><line style="stroke:#181818;stroke-width:1;" x1="378.7869" x2="758.9672" y1="527.9521" y2="527.9521"/><text fill="#000000" font-family="sans-serif" font-size="13" lengthAdjust="spacing" textLength="142.7531" x="390.7869" y="522.1431">StreamAnswer(Answer)</text></g><g class="message" data-participant-1="Webrtc" data-participant-2="Remote"><polygon fill="#181818" points="747.9672,555.6582,757.9672,559.6582,747.9672,563.6582,751.9672,559.6582" style="stroke:#181818;stroke-width:1;"/><line style="stroke:#181818;stroke-width:1;" x1="373.7869" x2="753.9672" y1="559.6582" y2="559.6582"/><text fill="#000000" font-family="sans-serif" font-size="13" lengthAdjust="spacing" textLength="313.9632" x="380.7869" y="553.8492">Stream Real-time Video using established protocols</text></g><!--SRC=[TP1FRuCm3CNl-HHMJo2rqdRjOLBNIZtjZ-Yq7ISJt2vIIBB4RR_-GiAWOem3nFZdzrxiqBEIog5XQ6h008iTCjOO29xGu8dyGhWRI69B7biqYTscQfxyeDgpJ5WyLczRUFMsESifLr5hcOJGrZenogyUka1hS5RhR1EAKiHViJ5IQzXSK6ciDK5F2TGCptJjQzWHasHg1CHddEnq-eXhE70CLEI1Kf2PmXFFWoPonVrTHdkLoEIhH61hZOcc5NsVAN3n6DSP65bPywcQKlJSRO9X8ZXh0XK7zeHjekSCAZgfmEH_Lphlj8H1PWacNc3M-g_MDCCIBegkv5ESCSsWi2SJTnDbNuv7ydDvirHg5-bzcsIW1fsD2T5kBcmMolqYVyh_3MEDUiMg9NXN3Lau1sLEqAserYfyKGFEMxRIwY0QGidgqlbdmHy0]--></g></svg>